<ttFont>
<head>
    <!-- Most of this table will be recalculated by the compiler -->
    <tableVersion value="1.0"/>
    <fontRevision value="1.0"/>
    <checkSumAdjustment value="0x13efcbc1"/>
    <magicNumber value="0x5f0f3cf5"/>
    <flags value="00000000 00000011"/>
    <unitsPerEm value="2048"/>
    <created value="Tue May 30 14:29:55 2017"/>
    <modified value="Wed May 31 02:50:37 2017"/>
    <xMin value="-530"/>
    <yMin value="-494"/>
    <xMax value="2716"/>
    <yMax value="2087"/>
<macStyle value="00000000 00000010"/>
    <lowestRecPPEM value="3"/>
    <fontDirectionHint value="2"/>
    <indexToLocFormat value="0"/>
    <glyphDataFormat value="0"/>
  </head>
          <CharString index="0">
            rmoveto
            240 43 172 172 217 hhcurveto
            200 114 -138 -198 -35 -1 -18 -5 -23 hvcurveto
            -429 -592 rmoveto
            219 170 123 191 62 hvcurveto
            -79 hlineto
            -153 -57 -133 -91 -178 hhcurveto
            -205 -129 140 225 22 3 31 5 38 hvcurveto
            820 hlineto
            9 38 6 53 46 vvcurveto
            253 -150 158 -240 -306 -225 -279 -366 -257 153 -172 255 vhcurveto
            return
          </CharString>
          <CharString index="1">
            rmoveto
            297 199 -210 -332 -445 -282 -350 -370 -298 -199 210 332 445 282 350 371 hvcurveto
            -159 -1411 rmoveto
            18 callsubr
            -421 -315 -382 -493 -369 231 -241 343 hvcurveto
            return
          </CharString>
          <CharString index="2">
            rmoveto
            36 -46 callsubr
            29 -36 -37 -30 -29 -37 -36 30 -30 37 hvcurveto
            298 hmoveto
            36 31 -31 callsubr
            -31 29 -36 -36 -31 -29 -37 -36 31 -30 36 hvcurveto
            endchar
          </CharString>
          <CharString index="3">
            -44 542 -105 callgsubr
            return
          </CharString>
          <CharString index="4">
            234 669 -21 rmoveto
            321 214 176 303 65 hvcurveto
            210 985 rlineto
            -80 hlineto
            -208 -973 rlineto
            -261 -56 -193 -156 -262 hhcurveto
            -255 -158 144 215 -2 hvcurveto
            -1 45 5 53 9 38 191 895 rcurveline
            -81 hlineto
            -191 -896 -9 -45 -5 -47 1 -48 rlinecurve
            -250 189 -178 296 vhcurveto
            return
          </CharString>
          <CharString index="5">
            1341 rmoveto
            4 hlineto
            131 -789 rlineto
            -598 hlineto
            688 -552 rmoveto
            76 hlineto
            -242 -8 callgsubr
            -855 -24 callgsubr
            90 hlineto
            285 482 rlineto
            648 hlineto
            return
          </CharString>
          <CharString index="6">
            rmoveto
            42 36 35 42 42 -36 36 -42 -42 -36 -36 -42 -42 36 -35 42 hvcurveto
            return
          </CharString>
          <CharString index="7">
            rmoveto
            -760 hlineto
            133 631 rlineto
            725 hlineto
            16 72 rlineto
            -725 hlineto
            126 101 callgsubr
            -307 -1443 rlineto
            842 hlineto
            return
          </CharString>
          <CharString index="8">
            -375 rmoveto
            242 179 135 238 51 hvcurveto
            223 1042 rlineto
            -77 hlineto
            -64 -297 rlineto
            -5 hlineto
            186 -18 -142 127 -196 hhcurveto
            -306 -228 -295 -338 -258 152 -166 233 168 154 95 153 79 hvcurveto
            4 hlineto
            -55 -246 rlineto
            -193 -43 -146 -115 -201 hhcurveto
            -191 -124 97 120 -10 hvcurveto
            -80 hlineto
            -155 2 164 -130 235 hhcurveto
            59 444 rmoveto
            -202 -120 138 219 305 203 255 252 193 128 -140 -216 -312 -193 -249 -261 hvcurveto
            return
          </CharString>
          <CharString index="9">
            hlineto
            -307 -24 callgsubr
            return
          </CharString>
          <CharString index="10">
            54 rmoveto
            -193 -125 138 217 303 203 274 254 196 131 -142 -217 -307 -190 -266 -276 hvcurveto
            return
          </CharString>
          <CharString index="11" raw="1">
            1c055d6a 1dfbc71c fa5d6a1d f8074547
            1d0b   
          </CharString>
          <CharString index="12">
            hmoveto
            88 callsubr
            641 rlineto
            192 40 158 153 198 hhcurveto
            174 111 -103 -154 -32 -5 -36 -9 -39 hvcurveto
            -132 -622 rlineto
            78 hlineto
            136 637 rlineto
            8 38 4 38 34 vvcurveto
            178 -139 132 -201 -171 -131 -91 -134 -78 vhcurveto
            -4 hlineto
            44 208 rlineto
            -75 hlineto
            return
          </CharString>
          <CharString index="13">
            rmoveto
            -303 -225 -275 -358 -261 159 -180 255 202 164 118 183 66 hvcurveto
            -78 hlineto
            -140 -58 -133 -90 -162 hhcurveto
            -201 -136 147 225 318 195 242 254 177 123 -111 -158 18 hvcurveto
            76 hlineto
            1 0 0 1 vvcurveto
            194 -17 -150 144 -226 hhcurveto
            return
          </CharString>
          <CharString index="14">
            974 -91 callgsubr
            return
          </CharString>
          <CharString index="15">
            250 1392 701 rmoveto
            -560 hlineto
            -15 -71 rlineto
            480 hlineto
            -24 -111 rlineto
            -292 -65 -200 -174 -270 hhcurveto
            -297 -190 212 315 432 258 378 383 254 174 -148 -233 26 hvcurveto
            80 hlineto
            1 0 2 1 vvcurveto
            271 -24 -206 180 -301 hhcurveto
            -437 -287 -413 -477 -353 222 -242 342 315 226 193 341 75 hvcurveto
            return
          </CharString>
          <CharString index="16">
            rmoveto
            9 48 1 2 10 hvcurveto
            15 68 rlineto
            -1 -7 -46 -1 -9 hhcurveto
            -100 -61 42 85 23 4 27 7 31 hvcurveto
            149 697 rlineto
            224 hlineto
            14 68 rlineto
            -224 hlineto
            58 275 -32 callsubr
            -58 -275 rlineto
            -152 65 callsubr
            151 hlineto
            -151 -710 rlineto
            -7 -34 -4 -29 -26 vvcurveto
            -115 87 -60 135 vhcurveto
            return
          </CharString>
          <CharString index="17">
            -17 rmoveto
            207 171 108 166 57 hvcurveto
            -78 hlineto
            -129 -57 -130 -74 -166 hhcurveto
            -207 -131 141 214 33 5 42 5 35 hvcurveto
            827 hlineto
            7 38 6 38 51 vvcurveto
            236 -160 175 -228 -173 -155 -96 -155 -90 vhcurveto
            -4 hlineto
            152 -16 -122 99 -193 hhcurveto
            -224 -169 -126 -185 -34 hvcurveto
            80 hlineto
            145 29 132 95 181 hhcurveto
            170 102 -84 83 callgsubr
            -21 -100 -369 -19 rlineto
            -274 -13 -155 -107 -193 vvcurveto
            -157 134 -116 190 179 205 96 210 86 vhcurveto
            3 hlineto
            -185 38 143 -121 208 hhcurveto
            -312 601 rmoveto
            247 59 176 156 202 hhcurveto
            182 130 -145 -192 -34 -3 -18 -2 -14 hvcurveto
            -1279 -532 rmoveto
            -156 -105 87 123 149 126 80 223 13 hvcurveto
            357 19 -35 -161 rlineto
            -174 -38 -175 -136 -197 hhcurveto
            return
          </CharString>
          <CharString index="18">
            -33 callsubr
            -141 -666 rlineto
            -912 hlineto
            141 666 -60 callgsubr
            150 705 rlineto
            912 hlineto
            -150 -705 rlineto
            return
          </CharString>
          <CharString index="19">
            160 hmoveto
            280 93 callsubr
            4 hlineto
            646 93 callgsubr
            79 36 callgsubr
            -280 93 callgsubr
            -4 hlineto
            -646 1319 5 callsubr
            return
          </CharString>
          <CharString index="20">
            1073 618 rmoveto
            98 -22 92 -49 73 vhcurveto
            4 vlineto
            -11 17 37 -5 21 hhcurveto
            91 63 58 113 24 hvcurveto
            29 136 rlineto
            -74 hlineto
            -23 -109 rlineto
            -102 -21 -43 -35 -72 -126 -59 127 -215 hhcurveto
            -308 -225 -283 -352 -266 166 -173 254 308 227 279 356 hvcurveto
            -877 -194 rmoveto
            311 191 251 263 209 136 -143 -227 -315 -193 -247 -261 -209 -136 141 229 vhcurveto
            return
          </CharString>
          <CharString index="21">
            378 662 -21 rmoveto
            316 219 184 302 66 hvcurveto
            196 915 rlineto
            66 hlineto
            117 64 47 102 23 hvcurveto
            36 173 rlineto
            -73 hlineto
            -33 -157 rlineto
            -69 -16 -44 -33 -76 hhcurveto
            -131 hlineto
            -208 -966 rlineto
            -261 -56 -199 -163 -256 hhcurveto
            -263 -151 137 223 -2 hvcurveto
            -1 41 6 50 8 40 192 899 rcurveline
            -81 hlineto
            -192 -900 -9 -47 -5 -42 1 -47 rlinecurve
            -256 182 -172 304 vhcurveto
            return
          </CharString>
          <CharString index="22">
            hmoveto
            77 hlineto
            139 649 rlineto
            204 44 135 133 159 hhcurveto
            146 96 -98 -139 -32 -6 -50 -8 -37 hvcurveto
            -134 -630 rlineto
            78 hlineto
            138 644 rlineto
            213 44 134 129 162 hhcurveto
            145 95 -98 -139 -33 -5 -49 -8 -37 hvcurveto
            -134 -630 rlineto
            78 hlineto
            138 645 rlineto
            6 34 5 47 42 vvcurveto
            169 -125 120 -172 -168 -131 -110 -139 -56 vhcurveto
            -4 hlineto
            142 -13 -116 107 -161 hhcurveto
            -142 -113 -81 -135 -65 80 callsubr
            -75 hlineto
            return
          </CharString>
          <CharString index="23">
            rmoveto
            95 76 76 97 1 hvcurveto
            96 -77 72 -93 -95 -76 -76 -97 -96 76 -72 93 vhcurveto
            49 vmoveto
            -67 -52 52 68 70 52 53 69 68 51 -52 -68 -70 -51 -53 -70 hvcurveto
            endchar
          </CharString>
          <CharString index="24">
            -100 170 746 rmoveto
            78 hlineto
            145 59 132 94 164 hhcurveto
            205 129 -138 -218 -1 hvcurveto
            -19 -1 -19 -2 -19 vhcurveto
            -539 hlineto
            -14 -67 rlineto
            545 hlineto
            -262 -42 -179 -192 -231 hhcurveto
            -167 -119 92 134 -23 hvcurveto
            -78 hlineto
            -170 20 146 -126 216 hhcurveto
            321 226 291 368 252 -160 164 -244 -214 -165 -123 -187 -62 hvcurveto
            return
          </CharString>
          <CharString index="25">
            rmoveto
            64 hlineto
            324 289 rlineto
            -90 hlineto
            -258 -232 rlineto
            -4 hlineto
            -159 232 76 callgsubr
          </CharString>
          <CharString index="26">
            132 623 697 820 rlineto
            -96 hlineto
            -625 -736 rlineto
            -4 hlineto
            -316 736 rlineto
            -85 hlineto
            350 -812 -133 -631 rlineto
            return
          </CharString>
          <CharString index="27">
            rmoveto
            1 131 -86 73 -109 18 2 3 rcurveline
            132 21 119 98 1 145 rrcurveto
            152 -119 100 -205 -219 -142 -131 -176 -53 vhcurveto
            77 hlineto
            141 45 125 96 158 hhcurveto
            162 92 -67 -126 -1 hvcurveto
            -129 -126 -95 -180 vhcurveto
            -167 hlineto
            -14 -66 rlineto
            165 hlineto
            162 102 -58 -133 -152 -147 -108 -185 -186 -98 106 124 -9 hvcurveto
            -77 hlineto
            -170 10 122 -129 234 hhcurveto
            227 186 128 204 1 hvcurveto
            return
          </CharString>
          <CharString index="28">
            rmoveto
            -3 -13 -2 -15 -15 vvcurveto
            -126 101 -84 147 163 116 101 152 17 vhcurveto
            -64 hlineto
            -118 -13 -90 -77 -120 hhcurveto
            -119 -73 61 99 13 2 11 2 11 hvcurveto
            return
          </CharString>
          <CharString index="29" raw="1">
            f9a1f949 f99d15fb fe06f721 f92e4f1d
            f72af955 05f80006 f891fd6a 15f832f7
            daf812f8 8bf7f6fb 6bf78afb e8fc40fb
            cbfc25fc 79fbf7f7 6afb88f7 e81ff927
            fa0615fc 61fbb7fb effc03fb b5fb4ef7
            65f7d4f8 4ef7abf8 02f80ff7 b6f74dfb
            65fbd41e 0b  
          </CharString>
          <CharString index="30">
            rmoveto
            -71 hlineto
            -339 -290 rlineto
            91 hlineto
            277 236 rlineto
            3 hlineto
            176 -236 rlineto
            78 hlineto
            return
          </CharString>
          <CharString index="31">
            33 29 27 34 34 -29 26 -33 -33 -28 -26 -34 -34 28 -27 33 hvcurveto
            -23 -209 rmoveto
            -78 hlineto
            -243 -1139 rlineto
            -128 -26 -65 -55 -117 hhcurveto
            -15 -21 1 2 -19 hvcurveto
            -16 -69 rlineto
            -2 24 30 -1 16 hhcurveto
            155 68 callgsubr
          </CharString>
          <CharString index="32">
            rmoveto
            312 303 rlineto
            -93 hlineto
            -301 43 callsubr
          </CharString>
          <CharString index="33">
            rmoveto
            -594 hlineto
            -13 -59 rlineto
            594 hlineto
            endchar
          </CharString>
          <CharString index="34">
            rmoveto
            -520 hlineto
            -12 -60 rlineto
            519 hlineto
            endchar
          </CharString>
          <CharString index="35">
            54 rmoveto
            -198 -132 145 214 308 201 265 255 199 122 -143 -233 -313 -196 -243 -251 hvcurveto
            -507 -395 rmoveto
            136 639 rlineto
            3 hlineto
            -183 22 151 -131 194 hhcurveto
            297 228 273 357 268 -150 174 -233 -164 -152 -96 -154 -84 hvcurveto
            -5 hlineto
            50 234 rlineto
            -76 hlineto
            -294 -1381 rlineto
            return
          </CharString>
          <CharString index="36">
            208 -9 rmoveto
            173 95 87 291 190 hvcurveto
            701 1074 rlineto
            -91 hlineto
            -649 -1004 rlineto
            -7 hlineto
            -251 1004 rlineto
            -82 hlineto
            277 -1095 rlineto
            -220 -149 -76 -63 -118 hhcurveto
            -29 -25 4 5 -13 hvcurveto
            -15 -73 rlineto
            -5 14 25 -5 30 hhcurveto
            return
          </CharString>
          <CharString index="37">
            rmoveto
            323 303 rlineto
            -89 hlineto
            -262 -249 rlineto
            -3 hlineto
            -154 249 -32 callsubr
            192 43 callsubr
          </CharString>
          <CharString index="38">
            rmoveto
            -311 79 callgsubr
            125 582 rlineto
            377 hlineto
            341 239 184 298 222 -162 157 -256 hvcurveto
            -369 -72 rmoveto
            350 hlineto
            226 130 -130 -183 -254 -211 -150 -287 hvcurveto
            -363 hlineto
            return
          </CharString>
          <CharString index="39">
            rmoveto
            72 hlineto
            92 60 -48 -73 -85 -73 -60 -104 -92 -66 54 73 1 hvcurveto
            3 0 5 2 9 vhcurveto
            -69 hlineto
            -3 -12 0 -10 -7 vvcurveto
            -101 96 -76 129 147 105 86 119 75 -48 57 -79 14 vhcurveto
            1 3 rlineto
            98 13 67 69 87 vvcurveto
            97 -86 71 -116 -113 -91 -66 -101 -24 vhcurveto
            70 hlineto
            64 20 61 43 71 hhcurveto
            80 57 -48 -69 -74 -69 -55 -94 hvcurveto
            -91 hlineto
            return
          </CharString>
          <CharString index="40">
            377 680 783 rmoveto
            218 141 -111 -187 -245 -192 -168 -271 hvcurveto
            -395 hlineto
            152 711 rlineto
            -248 -783 rmoveto
            496 hlineto
            316 223 198 293 221 -173 143 -254 hvcurveto
            -345 hlineto
            124 588 rlineto
            -80 hlineto
            923 -1443 -68 callgsubr
            return
          </CharString>
          <CharString index="41">
            -79 callsubr
            endchar
          </CharString>
          <CharString index="42">
            98 742 677 rmoveto
            -227 -132 118 180 232 192 164 273 hvcurveto
            395 hlineto
            -148 -694 rlineto
            -394 -71 rmoveto
            11 11 -1 11 hhcurveto
            345 hlineto
            -128 -605 rlineto
            80 53 callgsubr
            -496 hlineto
            -327 -213 -210 -268 -174 113 -135 193 -38 hvcurveto
            -551 -618 rlineto
            103 hlineto
            return
          </CharString>
          <CharString index="43">
            778 hlineto
            14 68 rlineto
            -674 hlineto
            1 4 866 903 14 65 rlineto
            -776 hlineto
            -15 -68 rlineto
            675 hlineto
            -1 -4 -869 -904 rlineto
            return
          </CharString>
          <CharString index="44">
            rmoveto
            15 26 39 9 37 hhcurveto
            58 36 -31 -47 -52 -39 -44 -70 -22 hvcurveto
            27 -45 rlineto
            89 28 59 66 79 vvcurveto
            72 -62 52 -85 -39 -43 -10 -13 -21 vhcurveto
            endchar
          </CharString>
          <CharString index="45">
            88 416 179 136 349 -552 rlineto
            89 hlineto
            -375 596 579 444 rlineto
            -109 hlineto
            -686 -522 rlineto
            -4 hlineto
            197 925 45 callsubr
            return
          </CharString>
          <CharString index="46">
            1030 hlineto
            15 72 rlineto
            -920 4 hlineto
            1194 1305 13 62 rlineto
            -997 hlineto
            -15 -72 rlineto
            888 -4 hlineto
            -1195 -1305 rlineto
            return
          </CharString>
          <CharString index="47">
            rmoveto
            3 7 2 14 15 vvcurveto
            125 -101 92 -147 -163 -114 -104 -149 -19 vhcurveto
            64 hlineto
            115 15 88 81 121 hhcurveto
            118 73 -70 -97 -13 -2 -12 -2 -4 hvcurveto
            endchar
          </CharString>
          <CharString index="48">
            rmoveto
            66 -47 58 -73 24 vhcurveto
            1 2 rlineto
            97 15 65 70 87 vvcurveto
            91 -90 69 -120 -134 -101 -81 -108 -56 38 -51 61 -20 vhcurveto
            -3 vlineto
            -115 -15 -78 -79 -101 vvcurveto
            -104 96 -73 139 151 110 88 121 vhcurveto
            -259 -151 rmoveto
            -97 -63 51 77 85 77 64 103 95 69 -52 -71 -90 -77 -64 -107 hvcurveto
            70 332 rmoveto
            -85 -57 43 65 77 70 59 90 83 57 -45 -66 -75 -68 -58 -90 hvcurveto
            endchar
          </CharString>
          <CharString index="49">
            -641 rlineto
            -189 -40 -159 -156 -201 hhcurveto
            -176 -105 100 156 31 5 42 8 35 hvcurveto
            132 622 -32 callsubr
            -135 -635 rlineto
            -7 -39 -4 -41 -35 vvcurveto
            -174 132 -133 205 172 137 96 125 73 vhcurveto
            return
          </CharString>
          <CharString index="50">
            rmoveto
            3 5 2 14 15 vvcurveto
            120 -105 83 -143 -161 -120 -96 -141 -16 vhcurveto
            64 hlineto
            107 13 93 73 119 hhcurveto
            115 76 -61 -92 -13 -2 -12 -2 -2 hvcurveto
            endchar
          </CharString>
          <CharString index="51">
            rmoveto
            1 67 0 1 hhcurveto
            1 vlineto
            79 16 65 53 79 hhcurveto
            78 56 -48 -66 -61 -31 -39 -136 -115 hvcurveto
            -279 -234 -12 -55 rlineto
            452 hlineto
            12 61 rlineto
            -347 hlineto
            1 2 217 184 rlineto
            154 127 43 55 81 vvcurveto
            96 -87 73 -115 -123 -97 -80 -114 -15 vhcurveto
            endchar
          </CharString>
          <CharString index="52">
            -73 callgsubr
            endchar
          </CharString>
          <CharString index="53">
            rmoveto
            -313 -218 rlineto
            98 hlineto
            244 168 rlineto
            3 hlineto
            173 -168 rlineto
            86 hlineto
            -222 218 rlineto
            return
          </CharString>
          <CharString index="54">
            307 -45 callgsubr
            return
          </CharString>
          <CharString index="55">
            104 hlineto
            607 658 rlineto
            3 hlineto
            329 -658 rlineto
            90 hlineto
            -360 716 672 727 rlineto
            -104 hlineto
            -606 -657 rlineto
            -2 hlineto
            -329 657 rlineto
            -90 hlineto
            360 -715 rlineto
            return
          </CharString>
          <CharString index="56">
            rmoveto
            -112 87 -85 114 87 77 45 72 38 vhcurveto
            2 hlineto
            -192 -30 -84 -105 -124 hhcurveto
            -77 -56 48 70 -5 hvcurveto
            -73 hlineto
            -104 3 88 -75 118 hhcurveto
            89 76 41 72 56 hvcurveto
            62 81 37 118 139 vvcurveto
            146 -89 93 -137 -149 -110 -106 -146 vhcurveto
            411 45 rmoveto
            -102 -85 -83 -104 -85 -65 63 83 107 79 78 106 89 65 -61 -85 vhcurveto
            endchar
          </CharString>
          <CharString index="57">
            rmoveto
            37 -46 callsubr
            29 -37 -36 -30 -29 -37 -36 30 -30 36 hvcurveto
            299 hmoveto
            36 31 -31 callsubr
            -31 29 -36 -36 -31 -29 -37 -36 31 -30 36 hvcurveto
            return
          </CharString>
          <CharString index="58">
            58 callgsubr
            -73 -78 -117 -53 -134 hhcurveto
            -190 -78 121 188 41 hvcurveto
            57 270 -32 callsubr
            -57 -271 rlineto
            -225 -49 114 -153 225 hhcurveto
            132 110 return
          </CharString>
          <CharString index="59">
            rmoveto
            85 74 74 114 26 hvcurveto
            -59 hlineto
            -78 -18 -49 -54 -53 -92 0 151 -122 hhcurveto
            -87 -75 -74 -114 -24 hvcurveto
            59 hlineto
            76 16 52 56 52 92 0 -151 123 hhcurveto
            return
          </CharString>
          <CharString index="60">
            78 hlineto
            -37 callsubr
            return
          </CharString>
          <CharString index="61">
            30 -31 callsubr
            -30 return
          </CharString>
          <CharString index="62">
            -214 hhcurveto
            -236 -133 157 256 55 hvcurveto
            81 380 rlineto
            -81 hlineto
            -80 -378 rlineto
            -296 -63 161 -193 285 hhcurveto
            216 147 78 58 72 hvcurveto
            6 hlineto
            -152 -712 rlineto
            return
          </CharString>
          <CharString index="63" raw="1">
            16f70306 f906f898 058f06fb 02fc9805
            d906f702 f896058f 06f838fc 9605ea06
            fc54f8b8 8571f918 f89a0520 06fce0fc
            71058706 f60a25fc 70058806 fc1af870
            052e06f8 36fc8d8d a7050b 
          </CharString>
          <CharString index="64">
            271 648 -21 rmoveto
            386 322 312 472 50 hvcurveto
            423 47 -174 278 -401 hhcurveto
            -252 -236 -142 -217 -112 hvcurveto
            84 hlineto
            179 109 195 104 207 hhcurveto
            353 140 -246 -381 -41 hvcurveto
            -8 -2 -20 -1 -12 vhcurveto
            -1152 hlineto
            -4 -17 -7 -40 -17 vvcurveto
            -417 -66 192 -251 363 hhcurveto
            4 75 rmoveto
            -279 -147 165 279 53 5 47 11 53 hvcurveto
            1065 hlineto
            -360 -72 -279 -237 -304 hhcurveto
            return
          </CharString>
          <CharString index="65">
            rmoveto
            149 316 rlineto
            -97 hlineto
            -116 -316 rlineto
            276 3 rmoveto
            97 callsubr
            37 -31 29 -36 -37 -31 -29 -37 -37 31 -30 37 hvcurveto
            -396 hmoveto
            97 callsubr
            37 -31 29 -36 -37 -31 -29 -37 1 hvcurveto
            -37 30 -30 37 vhcurveto
            endchar
          </CharString>
          <CharString index="66">
            rmoveto
            156 120 93 137 22 hvcurveto
            -67 hlineto
            -103 -18 -89 -69 -114 hhcurveto
            -117 -75 62 97 2 0 8 1 3 hvcurveto
            -62 hlineto
            -5 -1 -12 -4 vvcurveto
            -126 95 -83 149 vhcurveto
            endchar
          </CharString>
          <CharString index="67">
            3 callsubr
            509 236 45 callgsubr
            -202 -176 rmoveto
            60 callgsubr
            43 callgsubr
          </CharString>
          <CharString index="68">
            rmoveto
            86 69 63 101 17 hvcurveto
            -61 hlineto
            -66 -13 -40 -40 -53 -77 -44 119 -103 hhcurveto
            -88 -68 -62 -102 -17 hvcurveto
            61 hlineto
            65 12 41 41 54 77 43 -119 104 hhcurveto
            -179 -62 rmoveto
            -313 -215 rlineto
            98 hlineto
            243 166 rlineto
            3 hlineto
            174 -166 rlineto
            86 hlineto
            -223 215 rlineto
            endchar
          </CharString>
          <CharString index="69">
            rmoveto
            191 341 rlineto
            -82 hlineto
            -175 -341 rlineto
            endchar
          </CharString>
          <CharString index="70">
            221 113 callsubr
            return
          </CharString>
          <CharString index="71">
            rmoveto
            -536 -390 -379 -522 -463 323 -306 488 71 71 7 11 47 hvcurveto
            14 65 rlineto
            -12 -41 -77 -8 -76 hhcurveto
            -457 -294 277 431 482 361 354 490 415 269 -234 -363 -296 -158 -236 -196 -87 -53 45 71 16 3 22 6 30 hvcurveto
            120 560 rlineto
            -73 hlineto
            -38 -178 rlineto
            -7 hlineto
            123 -17 -106 85 -135 hhcurveto
            -230 -192 -228 -272 -202 120 -137 178 121 112 67 113 65 hvcurveto
            7 -1 rlineto
            -1 -9 -1 -10 -9 vvcurveto
            -90 3 81 -61 115 hhcurveto
            242 188 262 336 396 -297 263 -448 hvcurveto
            167 -750 rmoveto
            -239 -158 -202 -187 -142 -90 108 170 236 160 193 193 140 84 -100 -166 vhcurveto
            endchar
          </CharString>
          <CharString index="72">
            -80 callgsubr
            -98 112 rmoveto
            88 67 73 116 16 hvcurveto
            -60 hlineto
            -77 -10 -44 -53 -51 -95 -23 149 -122 hhcurveto
            -91 -72 -77 -112 -12 hvcurveto
            60 hlineto
            75 8 47 55 54 94 24 -149 122 hhcurveto
            endchar
          </CharString>
          <CharString index="73">
            78 hlineto
            107 505 rlineto
            648 hlineto
            -107 -505 rlineto
            77 64 callgsubr
            -78 hlineto
            -100 -468 rlineto
            -648 hlineto
            101 468 rlineto
            -79 hlineto
            endchar
          </CharString>
          <CharString index="74">
            -53 callsubr
            -80 hlineto
            return
          </CharString>
          <CharString index="75">
            rlineto
            -78 hlineto
            return
          </CharString>
          <CharString index="76">
            30 36 37 return
          </CharString>
          <CharString index="77">
            rmoveto
            193 -87 -151 113 -168 hhcurveto
            -247 -177 -174 -241 -182 146 -144 187 169 147 94 212 159 hvcurveto
            -193 87 152 -113 167 hhcurveto
            247 178 174 241 182 -147 144 -186 -170 -147 -94 -212 -159 hvcurveto
            -415 233 rmoveto
            155 129 -104 -191 82 hvcurveto
            -210 -154 -135 -91 -152 hhcurveto
            -147 -116 115 144 195 143 142 195 hvcurveto
            809 -595 rmoveto
            -156 -129 104 191 -81 hvcurveto
            210 153 135 91 152 hhcurveto
            147 116 -115 -145 -195 -142 -141 -195 hvcurveto
            endchar
          </CharString>
          <CharString index="78">
            rmoveto
            -151 82 -97 129 175 139 189 252 152 -83 97 -129 -174 -139 -190 -252 vhcurveto
            213 -187 rmoveto
            -84 -54 72 113 210 109 173 127 84 54 -72 -113 -209 -108 -174 -128 hvcurveto
            -227 -824 rmoveto
            2 callsubr
            841 237 -61 callgsubr
          </CharString>
          <CharString index="79">
            -605 382 1040 rmoveto
            -78 hlineto
            -166 -778 rlineto
            -7 -34 -3 -29 -26 vvcurveto
            -113 84 -69 136 26 33 4 6 30 vhcurveto
            15 68 rlineto
            -6 -23 -38 -3 -21 hhcurveto
            -102 -59 51 83 23 4 27 6 31 hvcurveto
            return
          </CharString>
          <CharString index="80" raw="1">
            15f796f7 7ff71ff7 68f7041f 3706fb3e
            fb01fb56 22fb681b fbf1fb22 f78bf810
            b91f9890 b58c911e 1c048006 8e9d92b2
            9d1af81e c8fb5bf7 90fbf91b fc1bfbcd
            fbd2fc66 591ffc43 5af746fb a2f81b1b
            fc7bf990 1596d105 6506fb09 54b4ecd5
            b3e2bbc8 1f440659 51632e3b 1afb1fde
            4ff7291e f700d215 f7f4ddf7 9df773f7
            be1bf7a5 f736fb3b fba15a86 60815c1f
            0e   
          </CharString>
          <CharString index="81" raw="1">
            5e0a0e   
          </CharString>
          <CharString index="82">
            221 1040 rlineto
            return
          </CharString>
          <CharString index="83">
            36 29 29 36 36 -29 29 -36 return
          </CharString>
          <CharString index="84" raw="1">
            15b10696 ce056206 fb095abc d8edc6d8
            a2a61f46 0673734f 3c221afb 0cd648f7
            2e1ecccd 200a0e  
          </CharString>
          <CharString index="85" raw="1">
            15f0f871 053db20a f702f897 059006f8
            6cfc9705 f006fc95 f8c9895c f954f89e
            05fb0306 fd15fc71 050b 
          </CharString>
          <CharString index="86">
            567 rmoveto
            -213 -160 161 211 2 hvcurveto
            260 1 193 193 262 hhcurveto
            218 153 -161 -230 -2 hvcurveto
            -249 -1 -221 -185 -232 hhcurveto
            -451 366 rmoveto
            -247 -3 190 -190 249 hhcurveto
            206 178 114 178 72 hvcurveto
            4 hlineto
            -473 -62 -215 -263 -306 hhcurveto
            -189 -135 114 177 -19 hvcurveto
            -81 hlineto
            -216 16 169 -148 232 hhcurveto
            531 146 651 342 5 hvcurveto
            332 5 -217 160 -231 hhcurveto
            -314 -228 -225 -306 -3 hvcurveto
            endchar
          </CharString>
          <CharString index="87" raw="1">
            6a0afb1c fd110543 3cfb3037 710a
          </CharString>
          <CharString index="88">
            329 1400 628 rmoveto
            174 -28 152 -44 86 vhcurveto
            -88 hlineto
            44 -80 38 -144 -187 vvcurveto
            -334 -138 -241 -190 -136 -75 85 156 34 4 37 8 39 vhcurveto
            66 314 rlineto
            -77 hlineto
            -68 -327 rlineto
            -219 -47 -103 -119 -148 hhcurveto
            -134 -78 111 185 253 135 285 184 152 hvcurveto
            -89 hlineto
            -167 -136 -141 -287 -271 vvcurveto
            -232 99 -131 181 141 116 96 153 58 vhcurveto
            3 hlineto
            -158 7 103 -91 148 hhcurveto
            242 174 270 375 hvcurveto
            return
          </CharString>
          <CharString index="89">
            110 507 -16 rmoveto
            164 158 100 154 84 hvcurveto
            4 hlineto
            -9 -40 -12 -51 -23 vvcurveto
            -93 49 -39 99 25 29 5 5 18 vhcurveto
            15 68 rlineto
            -6 -19 -21 -2 -25 hhcurveto
            -65 -24 22 54 24 8 40 14 65 hvcurveto
            164 773 rlineto
            -76 3 callgsubr
            -4 hlineto
            179 -15 -141 139 -195 hhcurveto
            -292 -236 -293 -358 -252 148 -169 219 hvcurveto
            16 69 rmoveto
            -186 -120 141 216 312 201 264 248 189 126 -145 -216 -306 -203 -266 -255 hvcurveto
            return
          </CharString>
          <CharString index="90">
            -185 135 -142 174 99 97 47 81 65 vhcurveto
            15 hlineto
            -198 -46 -189 -136 -228 -4 -19 1 -3 hhcurveto
            -11 -68 rlineto
            -1 12 11 0 22 hhcurveto
            314 235 225 300 236 -147 169 -205 -187 -140 -140 -189 hvcurveto
            return
          </CharString>
          <CharString index="91">
            21 865 713 rmoveto
            15 73 rlineto
            -150 hlineto
            -205 -132 90 161 195 169 161 243 211 127 -124 -173 -22 hvcurveto
            75 hlineto
            212 34 -162 156 -259 hhcurveto
            -296 -199 -198 -233 -155 95 -88 146 -31 hvcurveto
            -1 -4 rlineto
            -280 -22 -161 -180 -222 vvcurveto
            -213 176 -139 262 262 233 164 219 44 vhcurveto
            -80 hlineto
            -174 -37 -201 -138 -217 hhcurveto
            -224 -137 117 167 210 162 169 343 hvcurveto
            return
          </CharString>
          <CharString index="92">
            rmoveto
            54 249 rlineto
            10 44 5 41 38 vvcurveto
            147 -89 73 -148 vhcurveto
            -33 hlineto
            -14 -66 rlineto
            30 hlineto
            121 56 -54 -113 -33 -6 -39 -9 -42 hvcurveto
            -56 -258 rlineto
            -7 -36 -5 -31 -27 vvcurveto
            -109 62 -38 117 -15 vhcurveto
            -4 -17 -156 -15 -78 -48 -36 -171 rlinecurve
            -70 -328 rlineto
            -185 -39 -64 -53 -155 hhcurveto
            -45 hlineto
            -14 -66 rlineto
            52 hlineto
            200 88 63 232 50 hvcurveto
            68 314 rlineto
            165 36 67 42 157 hhcurveto
            24 112 rlineto
            -118 7 -63 21 104 vvcurveto
            25 4 31 8 36 vhcurveto
            endchar
          </CharString>
          <CharString index="93">
            rmoveto
            -171 303 rlineto
            -83 hlineto
            184 43 callsubr
          </CharString>
          <CharString index="94">
            -225 604 987 rmoveto
            159 95 -72 -116 -110 -81 -80 -213 -32 hvcurveto
            -157 -24 rlineto
            -219 -36 -118 -96 -162 vvcurveto
            -167 139 -108 218 212 165 106 171 56 vhcurveto
            -82 hlineto
            -126 -46 -139 -83 -165 hhcurveto
            -176 -103 87 120 128 94 72 176 27 hvcurveto
            166 26 rlineto
            236 36 114 104 146 vvcurveto
            158 -123 98 -203 -234 -138 -136 -166 -59 vhcurveto
            82 hlineto
            135 55 116 100 173 hhcurveto
            endchar
          </CharString>
          <CharString index="95">
            hlineto
            15 70 rlineto
            return
          </CharString>
          <CharString index="96">
            -61 509 -14 rmoveto
            251 201 131 186 58 hvcurveto
            -79 hlineto
            -146 -58 -166 -101 -199 hhcurveto
            -183 -115 81 126 151 119 85 212 hvcurveto
            154 -12 callsubr
            -144 hlineto
            -165 -89 72 109 143 128 91 205 205 128 -101 -154 hvcurveto
            76 hlineto
            196 1 -151 129 -255 hhcurveto
            -249 -169 -118 -199 -97 68 -79 99 -19 hvcurveto
            -3 vlineto
            -165 -27 -105 -103 -152 vvcurveto
            -174 150 -97 222 vhcurveto
            return
          </CharString>
          <CharString index="97">
            58 callsubr
            75 353 rlineto
            -254 hlineto
            -15 -68 rlineto
            179 hlineto
            return
          </CharString>
          <CharString index="98">
            -12 callsubr
            -693 hlineto
            return
          </CharString>
          <CharString index="99">
            96 869 -341 rmoveto
            78 hlineto
            208 972 rlineto
            8 37 5 38 34 vvcurveto
            185 -140 129 -201 -170 -135 -89 -135 -82 vhcurveto
            -4 hlineto
            12 53 2 28 15 vvcurveto
            85 -3 -46 37 -95 hhcurveto
            -28 -29 -5 -5 -15 hvcurveto
            -15 -68 rlineto
            5 18 21 3 27 hhcurveto
            66 23 -25 -58 -17 -3 -20 -5 -25 hvcurveto
            -177 -833 rlineto
            78 hlineto
            88 callgsubr
            196 42 158 153 201 hhcurveto
            173 112 -104 -156 -32 -5 -35 -8 -35 hvcurveto
            return
          </CharString>
          <CharString index="100">
            255 1344 422 rmoveto
            -82 hlineto
            -230 -79 -194 -142 -259 hhcurveto
            -333 -189 267 388 58 hvcurveto
            744 hlineto
            15 72 rlineto
            -745 hlineto
            364 74 264 252 316 hhcurveto
            248 189 -168 -230 3 hvcurveto
            80 hlineto
            8 0 11 -1 14 vhcurveto
            255 -16 -225 184 -272 hhcurveto
            -418 -315 -364 -477 -23 hvcurveto
            -399 -32 224 -251 348 hhcurveto
            304 231 166 280 85 hvcurveto
            return
          </CharString>
          <CharString index="101">
            506 rmoveto
            233 -188 169 -244 -115 -92 -36 -51 -68 vhcurveto
            -9 2 36 45 23 27 50 48 rlinecurve
            515 500 rlineto
            -103 hlineto
            -458 -450 rlineto
            -230 -226 -100 -184 -191 vvcurveto
            -237 183 -179 263 306 231 237 293 vhcurveto
            -456 335 rmoveto
            219 158 -141 -200 -250 -195 -202 -258 -226 -149 152 201 246 196 194 255 hvcurveto
            endchar
          </CharString>
          <CharString index="102">
            -84 callgsubr
            endchar
          </CharString>
          <CharString index="103">
            rmoveto
            203 hlineto
            13 62 rlineto
            -203 hlineto
            45 215 rlineto
            -64 hlineto
            -45 -215 rlineto
            -202 hlineto
            -13 -62 rlineto
            202 hlineto
            -47 -219 rlineto
            65 hlineto
            endchar
          </CharString>
          <CharString index="104">
            -21 rmoveto
            309 224 228 309 244 -182 171 -253 -137 -149 -65 -96 -82 hvcurveto
            -5 hlineto
            186 601 rlineto
            698 hlineto
            15 72 rlineto
            -767 hlineto
            -239 -772 rlineto
            33 52 0 1 hvcurveto
            110 84 158 79 138 hhcurveto
            220 151 -142 -212 -261 -193 -194 -257 -216 -167 133 175 -4 hvcurveto
            6 -78 -10 vlineto
            -212 1 202 -165 258 hhcurveto
            endchar
          </CharString>
          <CharString index="105">
            544 hlineto
            14 73 rlineto
            -452 5 hlineto
            352 136 212 312 370 vvcurveto
            340 -222 228 -342 -464 -302 -379 -438 -267 106 -178 231 -124 vhcurveto
            -1 -5 rlineto
            -421 hlineto
            -14 -73 rlineto
            509 hlineto
            21 102 rlineto
            -243 121 -107 168 259 vvcurveto
            395 271 346 406 296 196 -206 -301 -364 -226 -296 -342 -122 vhcurveto
            endchar
          </CharString>
          <CharString index="106">
            rmoveto
            85 hlineto
            251 206 rlineto
            -93 hlineto
            return
          </CharString>
          <CharString index="107">
            rmoveto
            42 34 34 42 42 -34 34 -42 -42 -35 -34 -42 -42 35 -34 42 hvcurveto
            328 406 -73 callsubr
          </CharString>
          <CharString index="108">
            1491 -66 callsubr
          </CharString>
          <CharString index="109">
            677 707 705 736 rlineto
            -90 hlineto
            -672 -702 -709 -741 rlineto
            return
          </CharString>
          <CharString index="110">
            rmoveto
            -35 46 callgsubr
            35 -24 callsubr
            hvcurveto
            return
          </CharString>
          <CharString index="111">
            2052 rmoveto
            -4 -16 -2 -15 -13 vvcurveto
            -95 75 -55 123 141 109 72 122 26 vhcurveto
            -67 hlineto
            -87 -18 -79 -51 -100 hhcurveto
            -87 -54 39 68 10 1 10 2 73 callsubr
            18 78 53 103 hhcurveto
            92 55 -40 -68 -9 -2 111 callsubr
            15 2 14 14 vvcurveto
            93 -75 58 -127 -146 -108 -76 -118 -25 vhcurveto
            return
          </CharString>
          <CharString index="112">
            rlineto
            -79 -98 callsubr
            return
          </CharString>
          <CharString index="113" raw="1">
            f782fadd 1c04b815 9ad105fe 02067c45
            05d41cfb 4815f884 06f7d0f7 74f75af7
            b9f771fb 41f723fb 931ffbed 06f71df9
            1f053b06 fb741cfa 6615f72c f95b05f7
            ef06f76e f721fb03 fb4ffb89 fb53fb3c
            fba41f0e   
          </CharString>
          <CharString index="114">
            rmoveto
            351 287 rlineto
            -98 hlineto
            -336 -287 rlineto
            -186 106 callgsubr
            -97 hlineto
            -337 -287 rlineto
            endchar
          </CharString>
          <CharString index="115">
            rmoveto
            237 182 164 239 162 -112 106 -189 hvcurveto
            -263 hlineto
            79 374 rlineto
            -77 hlineto
            -143 -669 rlineto
            -7 -38 -4 -36 -33 vvcurveto
            -167 107 -102 190 vhcurveto
            101 603 rmoveto
            155 84 -79 -130 -178 -135 -146 -196 -146 -81 80 132 29 3 32 7 33 hvcurveto
            49 227 rlineto
            endchar
          </CharString>
          <CharString index="116">
            97 846 -102 callsubr
            -99 1286 -54 callsubr
            return
          </CharString>
          <CharString index="117">
            1544 -55 callsubr
          </CharString>
          <CharString index="118">
            hmoveto
            12 callsubr
          </CharString>
          <CharString index="119">
            -96 callgsubr
            endchar
          </CharString>
          <CharString index="120" raw="1">
            f783ebf9 5115f90e 069ad305 fd0d06f7
            a7f932a7 0a  
          </CharString>
          <CharString index="121">
            -77 callsubr
            -37 267 rmoveto
            80 hlineto
            314 306 rlineto
            -89 hlineto
            endchar
          </CharString>
          <CharString index="122">
            hmoveto
            78 hlineto
            77 361 rlineto
            229 hlineto
            15 72 rlineto
            -229 hlineto
            215 1015 rlineto
            -116 hlineto
            -617 -643 -149 -164 -170 -205 -13 -75 rcurveline
            757 hlineto
            -649 76 rmoveto
            176 212 116 128 566 587 rrcurveto
            4 hlineto
            -198 -931 rlineto
            -665 hlineto
            endchar
          </CharString>
          <CharString index="123">
            90 1023 hmoveto
            -33 callsubr
            -136 -637 rlineto
            -72 -79 -156 -84 -45 callsubr
            return
          </CharString>
          <CharString index="124">
            rmoveto
            13 62 rlineto
            -462 hlineto
            -13 -62 rlineto
            503 190 rmoveto
            13 63 rlineto
            -463 hlineto
            -12 -63 rlineto
            endchar
          </CharString>
          <CharString index="125">
            420 316 382 493 369 -232 241 -342 return
          </CharString>
          <CharString index="126">
            hmoveto
            148 695 rlineto
            690 hlineto
            16 72 rlineto
            -690 hlineto
            128 603 rlineto
            750 hlineto
            15 73 rlineto
            -830 -98 callsubr
            return
          </CharString>
          <CharString index="127">
            -70 callgsubr
            endchar
          </CharString>
          <CharString index="128">
            24 callgsubr
            endchar
          </CharString>
          <CharString index="129">
            rmoveto
            41 35 35 41 42 -35 34 -41 -42 -35 -34 -42 -41 35 -35 42 hvcurveto
            358 359 45 callgsubr
            endchar
          </CharString>
          <CharString index="130">
            rmoveto
            -6 callgsubr
            return
          </CharString>
          <CharString index="131">
            284 1768 -54 callsubr
            return
          </CharString>
          <CharString index="132">
            -221 -1040 rlineto
            return
          </CharString>
          <CharString index="133">
            rmoveto
            68 hlineto
            176 296 rlineto
            -100 hlineto
            endchar
          </CharString>
          <CharString index="134">
            rmoveto
            -168 206 rlineto
            -84 hlineto
            177 -206 rlineto
            -141 -218 rmoveto
            35 30 29 36 36 -30 29 -35 60 callgsubr
            hvcurveto
            294 hmoveto
            35 30 29 36 36 -30 29 -35 -36 46 callgsubr
            36 hvcurveto
            endchar
          </CharString>
          <CharString index="135">
            -88 callgsubr
            endchar
          </CharString>
          <CharString index="136" raw="1">
            881d0e   
          </CharString>
          <CharString index="137">
            rmoveto
            -177 306 rlineto
            -76 hlineto
            186 -306 rlineto
            251 -157 -73 callsubr
          </CharString>
          <CharString index="138">
            456 -46 callgsubr
            endchar
          </CharString>
          <CharString index="139">
            rmoveto
            1848 hlineto
            72 339 rlineto
            -1848 hlineto
            18 82 rmoveto
            1847 hlineto
            72 339 rlineto
            -1847 hlineto
            return
          </CharString>
          <CharString index="140" raw="1">
            fba0f7d5 b10a  
          </CharString>
          <CharString index="141">
            rmoveto
            117 95 95 117 118 -95 94 -117 -117 -95 -94 -118 -117 95 -95 117 hvcurveto
            endchar
          </CharString>
          <CharString index="142">
            rmoveto
            14 69 rlineto
            -963 hlineto
            -15 -69 rlineto
            640 569 rmoveto
            445 hlineto
            14 66 rlineto
            -445 hlineto
            71 332 rlineto
            -73 hlineto
            -71 -332 rlineto
            -446 hlineto
            -13 -66 rlineto
            445 hlineto
            -75 -350 rlineto
            73 hlineto
            endchar
          </CharString>
          <CharString index="143">
            291 81 callsubr
            return
          </CharString>
          <CharString index="144">
            rmoveto
            76 358 rlineto
            -187 81 callgsubr
            -81 hlineto
            -291 -1370 rlineto
            -890 hlineto
            50 callgsubr
            -81 -98 callsubr
            1163 hlineto
            -61 -285 rlineto
            endchar
          </CharString>
          <CharString index="145" raw="1">
            2b0a0e   
          </CharString>
          <CharString index="146">
            53 callsubr
            78 hlineto
            return
          </CharString>
          <CharString index="147">
            73 callgsubr
            337 76 rmoveto
            42 36 35 42 42 -36 35 -42 -41 -36 -35 -42 -42 36 -35 41 hvcurveto
            endchar
          </CharString>
          <CharString index="148">
            -304 921 972 -3 callgsubr
            return
          </CharString>
          <CharString index="149">
            rmoveto
            79 hlineto
            314 306 rlineto
            -88 hlineto
            -33 -463 -73 callsubr
          </CharString>
          <CharString index="150">
            -11 callgsubr
            endchar
          </CharString>
          <CharString index="151">
            rmoveto
            -68 145 -33 248 242 vvcurveto
            417 182 412 289 280 vhcurveto
            -89 hlineto
            -275 -269 -185 -406 -437 vvcurveto
            -231 32 -248 72 -153 vhcurveto
            endchar
          </CharString>
          <CharString index="152">
            rlineto
            -78 -98 callsubr
            return
          </CharString>
          <CharString index="153">
            -209 -135 return
          </CharString>
          <CharString index="154">
            83 callsubr
            -638 hlineto
            207 972 rlineto
            -78 53 callsubr
            return
          </CharString>
          <CharString index="155">
            -1349 -100 callgsubr
          </CharString>
          <CharString index="156" raw="1">
            fc00159d 06f750ec dbf751b3 1fa0ea05
            0b   
          </CharString>
          <CharString index="157">
            rmoveto
            245 187 188 246 233 -184 180 -238 -244 -187 -188 -245 -232 185 -182 236 hvcurveto
            52 vmoveto
            -203 -162 return
          </CharString>
          <CharString index="158">
            rmoveto
            58 48 -249 317 390 322 -45 55 -390 -321 -251 318 -58 -47 251 -320 -390 -322 45 -54 389 321 rlineto
            endchar
          </CharString>
          <CharString index="159">
            58 callsubr
            76 358 rlineto
            return
          </CharString>
          <CharString index="160">
            hlineto
            25 callsubr
            return
          </CharString>
          <CharString index="161">
            -804 68 hmoveto
            9 callgsubr
            -320 -1752 -101 callsubr
            return
          </CharString>
          <CharString index="162">
            rmoveto
            455 -7 callgsubr
            -455 hlineto
            99 467 rlineto
            -71 hlineto
            -100 -467 rlineto
            -454 hlineto
            -15 -73 rlineto
            454 hlineto
            -102 -479 rlineto
            71 hlineto
            endchar
          </CharString>
          <CharString index="163">
            hmoveto
            79 53 callgsubr
            -79 hlineto
            -152 -80 -214 -127 -83 -48 -20 -94 rcurveline
            122 70 222 132 100 51 rrcurveto
            4 hlineto
            endchar
          </CharString>
          <CharString index="164">
            hmoveto
            -53 callsubr
            -1058 -98 callsubr
            80 81 callgsubr
            900 16 callgsubr
            endchar
          </CharString>
          <CharString index="165">
            -285 rmoveto
            76 hlineto
            return
          </CharString>
          <CharString index="166">
            477 84 callsubr
            -228 -459 rlineto
            75 hlineto
            234 459 rlineto
            return
          </CharString>
          <CharString index="167">
            95 68 176 37 hvcurveto
            return
          </CharString>
          <CharString index="168">
            rmoveto
            144 678 rlineto
            -70 hlineto
            -144 -678 rlineto
            -157 -1066 rmoveto
            145 678 rlineto
            -70 hlineto
            -144 -678 rlineto
            endchar
          </CharString>
          <CharString index="169">
            1241 -14 callsubr
          </CharString>
          <CharString index="170">
            rmoveto
            371 1744 rlineto
            -372 hlineto
            -14 -65 rlineto
            296 hlineto
            -343 -1613 rlineto
            -297 hlineto
            -13 -66 rlineto
            endchar
          </CharString>
          <CharString index="171">
            593 155 rmoveto
            -279 403 1 8 453 413 rlineto
            -101 hlineto
            -449 -406 -1 -9 285 -409 rlineto
            return
          </CharString>
          <CharString index="172">
            hlineto
            -14 -68 rlineto
            return
          </CharString>
          <CharString index="173">
            rmoveto
            13 62 rlineto
            -469 hlineto
            -13 -62 rlineto
            endchar
          </CharString>
          <CharString index="174">
            4 hlineto
            -44 -204 rlineto
            74 hlineto
            return
          </CharString>
          <CharString index="175">
            hlineto
            50 callgsubr
            -80 16 callgsubr
            return
          </CharString>
          <CharString index="176">
            -600 rlineto
            51 hlineto
            402 600 rlineto
            3 hlineto
            -136 -601 rlineto
            58 hlineto
            161 708 rlineto
            -77 hlineto
            return
          </CharString>
          <CharString index="177">
            rmoveto
            653 -499 -1 -6 -867 -505 -19 -90 966 559 14 66 -728 560 rlineto
            endchar
          </CharString>
          <CharString index="178">
            hmoveto
            87 hlineto
            976 1367 16 76 rlineto
            -911 hlineto
            -15 -72 rlineto
            822 hlineto
            -1 -5 rlineto
            endchar
          </CharString>
          <CharString index="179" raw="1">
            edd9f74f b41fa1ed 053dd01d 6b434ffb
            221b7106 0b  
          </CharString>
          <CharString index="180">
            11 hvcurveto
            -167 -455 rmoveto
            67 hlineto
            85 return
          </CharString>
          <CharString index="181">
            84 callsubr
            -82 100 callsubr
            return
          </CharString>
          <CharString index="182">
            -285 rmoveto
            75 hlineto
            return
          </CharString>
          <CharString index="183">
            rmoveto
            105 callgsubr
          </CharString>
          <CharString index="184">
            -205 -445 rlineto
            82 hlineto
            189 445 rlineto
            return
          </CharString>
          <CharString index="185">
            75 callsubr
            76 353 rlineto
            return
          </CharString>
          <CharString index="186">
            hhcurveto
            -293 -244 return
          </CharString>
          <CharString index="187">
            hvcurveto
            -4 hlineto
            42 199 rlineto
            return
          </CharString>
          <CharString index="188">
            1370 rlineto
            return
          </CharString>
          <CharString index="189">
            rmoveto
            -961 hlineto
            -14 -69 rlineto
            890 hlineto
            -99 -468 rlineto
            70 hlineto
            endchar
          </CharString>
          <CharString index="190">
            rlineto
            -78 107 callgsubr
            return
          </CharString>
          <CharString index="191">
            1443 rmoveto
            return
          </CharString>
          <CharString index="192" raw="1">
            f10a7d47 05eb060b  
          </CharString>
          <CharString index="193">
            rmoveto
            371 1744 rlineto
            -70 hlineto
            -371 -1744 rlineto
            endchar
          </CharString>
          <CharString index="194">
            hmoveto
            307 1443 -94 callgsubr
            endchar
          </CharString>
          <CharString index="195">
            77 hlineto
            138 return
          </CharString>
          <CharString index="196">
            344 984 rmoveto
            98 459 rlineto
            -75 hlineto
            -98 -459 rlineto
            return
          </CharString>
          <CharString index="197">
            585 1608 35 callgsubr
            return
          </CharString>
          <CharString index="198">
            69 callgsubr
            -31 return
          </CharString>
          <CharString index="199">
            hlineto
            -25 callsubr
            return
          </CharString>
          <CharString index="200">
            1319 rlineto
            return
          </CharString>
          <CharString index="201" raw="1">
            37dbf94d 15f9c706 9ace05fd c6060b
          </CharString>
          <CharString index="202">
            rmoveto
            2048 -12 callsubr
            -2048 hlineto
            endchar
          </CharString>
          <CharString index="203">
            hlineto
            -16 -73 rlineto
            return
          </CharString>
          <CharString index="204">
            37 30 30 37 return
          </CharString>
          <CharString index="205">
            hlineto
            207 972 83 callsubr
            return
          </CharString>
          <CharString index="206">
            rmoveto
            205 445 rlineto
            -82 hlineto
            -190 -445 rlineto
            return
          </CharString>
          <CharString index="207">
            -385 rlineto
            56 hlineto
            return
          </CharString>
          <CharString index="208">
            127 -191 -137 -113 -53 -78 -85 hvcurveto
            return
          </CharString>
          <CharString index="209">
            78 callsubr
            -172 hlineto
            return
          </CharString>
          <CharString index="210">
            rmoveto
            16 73 rlineto
            -981 hlineto
            -15 -73 rlineto
            endchar
          </CharString>
          <CharString index="211">
            rmoveto
            401 226 -305 226 rlineto
            endchar
          </CharString>
          <CharString index="212">
            hlineto
            178 -206 rlineto
            endchar
          </CharString>
          <CharString index="213">
            200 122 -143 return
          </CharString>
          <CharString index="214" raw="1">
            f0f8716b 0a0b  
          </CharString>
          <CharString index="215">
            hvcurveto
            4 hlineto
            -50 return
          </CharString>
          <CharString index="216">
            hvcurveto
            217 1 162 164 213 hhcurveto
            return
          </CharString>
          <CharString index="217">
            rmoveto
            -451 hlineto
            143 -387 rlineto
            endchar
          </CharString>
          <CharString index="218">
            84 callgsubr
            3 return
          </CharString>
          <CharString index="219">
            -2 84 callgsubr
            return
          </CharString>
          <CharString index="220">
            1040 -32 callsubr
            return
          </CharString>
          <CharString index="221">
            hlineto
            -13 -60 rlineto
            return
          </CharString>
          <CharString index="222">
            29 -29 36 hvcurveto
            return
          </CharString>
        <CharString name=".notdef">
          924 -58 -494 32 callsubr
          17 82 32 callsubr
          17 82 32 callsubr
          endchar
        </CharString>
        <CharString name=".null">
          endchar
        </CharString>
        <CharString name="A">
          97 846 -102 callsubr
          endchar
        </CharString>
        <CharString name="AE">
          716 1203 -42 callgsubr
          endchar
        </CharString>
        <CharString name="AEacute">
          716 1203 -42 callgsubr
          495 1134 -79 callgsubr
        </CharString>
        <CharString name="AEmacron">
          716 1203 -42 callgsubr
          780 1257 -74 callsubr
        </CharString>
        <CharString name="Aacute">
          97 846 -102 callsubr
          -65 1074 -79 callgsubr
        </CharString>
        <CharString name="Abreve">
          97 846 -102 callsubr
          -347 1306 -75 callgsubr
          endchar
        </CharString>
        <CharString name="Abreveacute">
          97 846 -102 callsubr
          -148 1289 -1 callsubr
          -200 -426 -41 callsubr
        </CharString>
        <CharString name="Abrevedotbelow">
          97 846 -102 callsubr
          -347 1306 -75 callgsubr
          -202 -2097 -100 callgsubr
        </CharString>
        <CharString name="Abrevegrave">
          97 846 -102 callsubr
          -10 1289 26 callgsubr
        </CharString>
        <CharString name="Abrevehookabove">
          97 846 -102 callsubr
          -224 1464 rmoveto
          11 25 40 9 36 hhcurveto
          63 36 -33 -47 -44 -30 -35 -50 -21 hvcurveto
          35 -42 rlineto
          71 31 39 54 67 vvcurveto
          71 -60 54 -92 -38 -43 -10 -10 -19 vhcurveto
          106 -450 -41 callsubr
        </CharString>
        <CharString name="Abrevetilde">
          97 846 -102 callsubr
          78 1342 rmoveto
          87 73 73 110 24 hvcurveto
          -64 hlineto
          -78 -17 -46 -46 -52 -91 -1 142 -121 hhcurveto
          -88 -74 -72 -110 -22 hvcurveto
          64 hlineto
          76 15 49 48 50 91 1 -143 122 hhcurveto
          -183 -273 -41 callsubr
        </CharString>
        <CharString name="Acaron">
          97 846 -102 callsubr
          -133 1074 -82 callsubr
        </CharString>
        <CharString name="Acircumflex">
          97 846 -102 callsubr
          -18 1363 -89 callgsubr
        </CharString>
        <CharString name="Acircumflexacute">
          9 callsubr
          121 3 -1 callsubr
          endchar
        </CharString>
        <CharString name="Acircumflexdotbelow">
          97 846 -102 callsubr
          -18 1363 -93 callgsubr
          -669 -1865 -100 callgsubr
        </CharString>
        <CharString name="Acircumflexgrave">
          9 callsubr
          320 3 33 callgsubr
          endchar
        </CharString>
        <CharString name="Acircumflexhookabove">
          9 callsubr
          70 139 rmoveto
          11 24 39 9 34 hhcurveto
          61 36 -30 -49 -42 -28 -34 -48 -20 hvcurveto
          33 -41 rlineto
          68 30 39 52 66 vvcurveto
          71 -60 49 -88 -39 -40 -10 -10 -19 vhcurveto
          endchar
        </CharString>
        <CharString name="Acircumflextilde">
          97 846 -102 callsubr
          80 1345 -39 callsubr
        </CharString>
        <CharString name="Acyrillic">
          107 851 -102 callsubr
          endchar
        </CharString>
        <CharString name="Adblgrave">
          97 846 -102 callsubr
          -273 1074 -31 callgsubr
        </CharString>
        <CharString name="Adieresis">
          97 846 -102 callsubr
          -230 1123 -105 callsubr
        </CharString>
        <CharString name="Adieresismacron">
          97 846 -102 callsubr
          -239 1201 -40 callsubr
        </CharString>
        <CharString name="Adotaccent">
          97 846 -102 callsubr
          -73 1162 -100 callgsubr
        </CharString>
        <CharString name="Adotbelow">
          97 846 -102 callsubr
          -485 -791 -100 callgsubr
        </CharString>
        <CharString name="Adotmacron">
          97 846 -102 callsubr
          -88 1078 22 callsubr
        </CharString>
        <CharString name="Agrave">
          97 846 -102 callsubr
          -152 1074 -34 callgsubr
          endchar
        </CharString>
        <CharString name="Ahookabove">
          97 846 -102 callsubr
          -236 1272 -63 callgsubr
        </CharString>
        <CharString name="Ainvertedbreve">
          97 846 -102 callsubr
          174 1069 -57 callsubr
        </CharString>
        <CharString name="Alphagreek">
          97 846 -102 callsubr
          endchar
        </CharString>
        <CharString name="Alphatonosgreek">
          97 846 -102 callsubr
          -581 666 rmoveto
          68 hlineto
          177 295 rlineto
          -101 hlineto
          endchar
        </CharString>
        <CharString name="Amacron">
          97 846 -102 callsubr
          219 1197 -74 callsubr
        </CharString>
        <CharString name="Aogonek">
          97 1068 -318 rmoveto
          -9 -16 -25 -4 -29 hhcurveto
          -67 -47 41 57 84 84 78 173 69 hvcurveto
          6 4 -243 1441 rlineto
          -81 hlineto
          -854 -24 callgsubr
          91 hlineto
          283 482 rlineto
          647 hlineto
          80 -472 rlineto
          -169 -66 -91 -91 -104 vvcurveto
          -83 68 -59 95 31 34 6 8 17 vhcurveto
          -211 1719 rmoveto
          4 hlineto
          132 -788 rlineto
          -597 hlineto
          endchar
        </CharString>
        <CharString name="Aring">
          97 846 -102 callsubr
          -70 1082 -84 callsubr
        </CharString>
        <CharString name="Aringacute">
          97 846 -102 callsubr
          -77 1040 rmoveto
          95 75 75 96 94 -75 71 -93 -94 -76 -75 -95 -95 76 -71 92 hvcurveto
          49 vmoveto
          -67 -50 51 66 69 51 52 68 67 50 -51 -66 1 hvcurveto
          -69 -51 -52 -69 vhcurveto
          187 516 rmoveto
          -177 -164 rlineto
          80 hlineto
          185 164 rlineto
          endchar
        </CharString>
        <CharString name="Aringbelow">
          97 846 -102 callsubr
          -494 -926 -84 callsubr
        </CharString>
        <CharString name="Atilde">
          97 846 -102 callsubr
          45 1069 -102 callgsubr
          endchar
        </CharString>
        <CharString name="B">
          74 596 -85 callgsubr
          endchar
        </CharString>
        <CharString name="Bdotaccent">
          74 596 -85 callgsubr
          237 1572 -100 callgsubr
        </CharString>
        <CharString name="Bdotbelow">
          74 596 -85 callgsubr
          -116 -381 -100 callgsubr
        </CharString>
        <CharString name="Becyrillic">
          22 581 hmoveto
          327 213 210 270 203 -162 147 -265 hvcurveto
          -352 hlineto
          115 540 rlineto
          734 -7 callgsubr
          -815 -98 callsubr
          96 72 rmoveto
          145 686 rlineto
          355 hlineto
          227 132 -115 -174 -232 -192 -165 -272 hvcurveto
          endchar
        </CharString>
        <CharString name="Betagreek">
          74 596 -85 callgsubr
          endchar
        </CharString>
        <CharString name="Blinebelow">
          74 596 -85 callgsubr
          185 -303 -74 callsubr
        </CharString>
        <CharString name="C">
          232 1356 -93 callsubr
          endchar
        </CharString>
        <CharString name="Cacute">
          232 1356 -93 callsubr
          -372 583 -79 callgsubr
        </CharString>
        <CharString name="Ccaron">
          232 1356 -93 callsubr
          -440 583 -82 callsubr
        </CharString>
        <CharString name="Ccedilla">
          232 600 -147 rmoveto
          -10 -42 52 -3 rlineto
          94 -7 51 -34 -64 vvcurveto
          -70 -60 -39 -88 -62 -49 14 22 -42 vhcurveto
          -13 -60 rlineto
          -22 44 58 -15 66 hhcurveto
          125 88 67 109 91 -68 53 -116 6 hvcurveto
          77 120 280 3 223 158 84 258 rlinecurve
          -83 hlineto
          -216 -79 -191 -129 -239 hhcurveto
          -296 -195 209 318 457 279 353 366 273 179 -169 -240 8 hvcurveto
          -2 0 -3 -2 vvcurveto
          80 hlineto
          3 0 1 4 vvcurveto
          283 -7 -213 199 -317 hhcurveto
          -415 -313 -385 -505 -337 202 -231 309 -25 hvcurveto
          endchar
        </CharString>
        <CharString name="Ccedillaacute">
          232 1334 1844 rmoveto
          -100 hlineto
          -336 -287 rlineto
          86 hlineto
          -384 -1704 rmoveto
          -10 -42 52 -3 rlineto
          94 -7 51 -34 -64 vvcurveto
          -70 -60 -39 -88 -62 -49 14 22 -42 vhcurveto
          -13 -60 rlineto
          -22 44 58 -15 66 hhcurveto
          125 88 67 109 91 -68 53 -116 6 hvcurveto
          77 120 280 3 223 158 84 258 rlinecurve
          -83 hlineto
          -216 -79 -191 -129 -239 hhcurveto
          -296 -195 209 318 457 279 353 366 273 179 -169 -240 8 hvcurveto
          -2 0 -3 -2 vvcurveto
          80 hlineto
          3 0 1 4 vvcurveto
          283 -7 -213 199 -317 hhcurveto
          -415 -313 -385 -505 -337 202 -231 309 -25 hvcurveto
          endchar
        </CharString>
        <CharString name="Ccircumflex">
          232 1356 -93 callsubr
          -325 872 -89 callgsubr
        </CharString>
        <CharString name="Cdotaccent">
          232 1356 -93 callsubr
          -380 671 -100 callgsubr
        </CharString>
        <CharString name="Checyrillic">
          16 callsubr
          endchar
        </CharString>
        <CharString name="Chigreek">
          66 -27 38 callgsubr
        </CharString>
        <CharString name="D">
          238 387 1443 28 callsubr
        </CharString>
        <CharString name="Dcaron">
          239 387 1443 -88 callgsubr
          595 1484 -82 callsubr
        </CharString>
        <CharString name="Dcircumflexbelow">
          239 387 1443 -88 callgsubr
          321 -237 -89 callgsubr
        </CharString>
        <CharString name="Dcommaaccent">
          239 387 1443 -88 callgsubr
          156 -547 -38 callsubr
        </CharString>
        <CharString name="Dcroat">
          239 178 72 rmoveto
          133 629 rlineto
          419 hlineto
          15 72 rlineto
          -419 hlineto
          127 598 rlineto
          346 hlineto
          339 176 -187 -313 -461 -304 -338 -455 hvcurveto
          -168 1371 rmoveto
          -142 -670 rlineto
          -133 hlineto
          -16 -72 rlineto
          134 hlineto
          -149 -701 rlineto
          477 hlineto
          505 332 368 512 345 -209 218 -375 hvcurveto
          endchar
        </CharString>
        <CharString name="Ddotaccent">
          239 387 1443 -88 callgsubr
          655 1572 -100 callgsubr
        </CharString>
        <CharString name="Ddotbelow">
          239 387 1443 -88 callgsubr
          278 -381 -100 callgsubr
        </CharString>
        <CharString name="Decyrillic">
          261 406 467 rmoveto
          247 903 rlineto
          681 hlineto
          -276 -1297 rlineto
          -855 hlineto
          2 9 98 78 57 137 46 170 rlinecurve
          -355 -467 rmoveto
          1184 hlineto
          -61 -286 rlineto
          75 hlineto
          77 359 rlineto
          -188 hlineto
          50 callgsubr
          -836 hlineto
          -265 -971 -54 -198 -74 -150 -114 -51 rlinecurve
          -97 hlineto
          -76 -359 rlineto
          76 hlineto
          endchar
        </CharString>
        <CharString name="Deltagreek">
          195 1187 hmoveto
          12 58 -246 1385 rlineto
          -81 hlineto
          -834 -1385 -12 -58 rlineto
          868 1341 rmoveto
          4 hlineto
          223 -1265 -1 -3 rlineto
          -982 hlineto
          1 4 rlineto
          endchar
        </CharString>
        <CharString name="Djecyrillic">
          491 532 hmoveto
          80 hlineto
          130 611 rlineto
          105 99 163 79 144 hhcurveto
          214 113 -119 -205 -231 -173 -177 -226 -42 -47 4 6 -18 hvcurveto
          -16 -72 rlineto
          -8 19 52 -5 47 hhcurveto
          282 203 206 284 242 -145 147 -256 -141 -137 -58 -93 -104 hvcurveto
          -9 hlineto
          139 655 rlineto
          509 hlineto
          15 73 rlineto
          -1095 96 callsubr
          507 hlineto
          endchar
        </CharString>
        <CharString name="Dlinebelow">
          239 387 1443 -88 callgsubr
          579 -303 -74 callsubr
        </CharString>
        <CharString name="Dzecyrillic">
          82 116 406 rmoveto
          -101 callgsubr
          endchar
        </CharString>
        <CharString name="Dzhecyrillic">
          210 1143 hmoveto
          -33 callsubr
          -291 -1370 rlineto
          -899 hlineto
          291 1370 5 callsubr
          522 hlineto
          -61 -285 rlineto
          72 hlineto
          61 285 rlineto
          endchar
        </CharString>
        <CharString name="E">
          -64 937 73 -100 callsubr
          endchar
        </CharString>
        <CharString name="Eacute">
          -64 937 73 -100 callsubr
          -50 1556 -79 callgsubr
        </CharString>
        <CharString name="Ebreve">
          -64 937 73 -100 callsubr
          -332 1788 -75 callgsubr
          endchar
        </CharString>
        <CharString name="Ecaron">
          -64 937 73 -100 callsubr
          -118 1556 -82 callsubr
        </CharString>
        <CharString name="Ecedilla">
          -64 1213 1370 rmoveto
          16 73 rlineto
          -842 hlineto
          -307 -1443 rlineto
          410 hlineto
          -94 -147 -10 -42 52 -3 rlineto
          94 -7 51 -34 -64 vvcurveto
          -70 -60 -39 -88 -62 -49 14 22 -42 vhcurveto
          -13 -60 rlineto
          -22 44 58 -15 66 hhcurveto
          125 88 67 109 91 -68 53 -116 6 hvcurveto
          90 141 rlineto
          366 hlineto
          15 73 rlineto
          -760 hlineto
          133 631 rlineto
          725 hlineto
          16 72 rlineto
          -725 hlineto
          126 594 rlineto
          endchar
        </CharString>
        <CharString name="Ecedillabreve">
          -64 1067 1788 rmoveto
          -109 -16 -91 -71 -117 hhcurveto
          -116 -75 61 98 6 1 11 1 4 hvcurveto
          -64 hlineto
          -2 -6 -1 -15 -7 vvcurveto
          -127 100 -82 145 161 117 92 145 21 vhcurveto
          82 -418 rmoveto
          16 73 rlineto
          -842 hlineto
          -307 -1443 rlineto
          410 hlineto
          -94 -147 -10 -42 52 -3 rlineto
          94 -7 51 -34 -64 vvcurveto
          -70 -60 -39 -88 -62 -49 14 22 -42 vhcurveto
          -13 -60 rlineto
          -22 44 58 -15 66 hhcurveto
          125 88 67 109 91 -68 53 -116 6 hvcurveto
          90 141 rlineto
          366 hlineto
          15 73 rlineto
          -760 hlineto
          133 631 rlineto
          725 hlineto
          16 72 rlineto
          -725 hlineto
          126 594 rlineto
          endchar
        </CharString>
        <CharString name="Ecircumflex">
          -64 937 73 -100 callsubr
          -3 1845 -89 callgsubr
        </CharString>
        <CharString name="Ecircumflexacute">
          -64 937 73 -100 callsubr
          -84 1768 -54 callsubr
          121 3 -1 callsubr
          endchar
        </CharString>
        <CharString name="Ecircumflexbelow">
          -64 937 73 -100 callsubr
          -410 -165 -89 callgsubr
        </CharString>
        <CharString name="Ecircumflexdotbelow">
          -64 937 73 -100 callsubr
          -3 1845 -93 callgsubr
          -652 -1865 -100 callgsubr
        </CharString>
        <CharString name="Ecircumflexgrave">
          -64 937 73 -100 callsubr
          -84 1768 -54 callsubr
          320 3 33 callgsubr
          endchar
        </CharString>
        <CharString name="Ecircumflexhookabove">
          -64 937 73 -100 callsubr
          -84 1768 -54 callsubr
          70 139 rmoveto
          11 24 39 9 34 hhcurveto
          61 36 -30 -49 -42 -28 -34 -48 -20 hvcurveto
          33 -41 rlineto
          68 30 39 52 66 vvcurveto
          71 -60 49 -88 -39 -40 -10 -10 -19 vhcurveto
          endchar
        </CharString>
        <CharString name="Ecircumflextilde">
          -64 937 73 -100 callsubr
          95 1827 -39 callsubr
        </CharString>
        <CharString name="Ecyrillic">
          -7 callsubr
          endchar
        </CharString>
        <CharString name="Edblgrave">
          -64 937 73 -100 callsubr
          -258 1556 -31 callgsubr
        </CharString>
        <CharString name="Edieresis">
          -64 937 73 -100 callsubr
          -215 1605 -105 callsubr
        </CharString>
        <CharString name="Edotaccent">
          -64 937 73 -100 callsubr
          -58 1644 -100 callgsubr
        </CharString>
        <CharString name="Edotbelow">
          -64 937 73 -100 callsubr
          -453 -309 -100 callgsubr
        </CharString>
        <CharString name="Efcyrillic">
          408 750 -13 rmoveto
          33 158 rlineto
          466 3 328 282 395 vvcurveto
          297 -202 175 -346 4 vhcurveto
          33 155 rlineto
          -79 hlineto
          -32 -155 rlineto
          -466 -4 -328 -281 -395 vvcurveto
          -297 202 -175 346 -4 vhcurveto
          -34 -158 rlineto
          -433 636 rmoveto
          349 290 253 407 4 vhcurveto
          -215 -1012 rlineto
          -303 2 -179 147 257 vvcurveto
          1258 200 rmoveto
          -350 -290 -252 -407 -4 vhcurveto
          215 1012 rlineto
          303 -2 179 -147 -257 vvcurveto
          endchar
        </CharString>
        <CharString name="Egrave">
          -64 937 73 -100 callsubr
          -137 1556 -34 callgsubr
          endchar
        </CharString>
        <CharString name="Ehookabove">
          -64 937 73 -100 callsubr
          -221 1754 -63 callgsubr
        </CharString>
        <CharString name="Einvertedbreve">
          -64 937 73 -100 callsubr
          189 1551 -57 callsubr
        </CharString>
        <CharString name="Elcyrillic">
          167 1100 hmoveto
          -47 callgsubr
        </CharString>
        <CharString name="Emacron">
          -64 937 73 -100 callsubr
          234 1679 -74 callsubr
        </CharString>
        <CharString name="Emacronacute">
          -64 937 73 -100 callsubr
          217 1608 35 callgsubr
          274 163 -1 callsubr
          endchar
        </CharString>
        <CharString name="Emacrongrave">
          -64 937 73 -100 callsubr
          217 1608 35 callgsubr
          378 163 rmoveto
          -169 206 rlineto
          -84 105 callsubr
        </CharString>
        <CharString name="Emcyrillic">
          501 161 20 callsubr
        </CharString>
        <CharString name="Encyrillic">
          224 1157 4 callgsubr
        </CharString>
        <CharString name="Eogonek">
          -64 80 hmoveto
          740 -1 hlineto
          -155 -69 -82 -87 -94 vvcurveto
          -83 112 callgsubr
          17 vhcurveto
          12 61 rlineto
          -9 -16 -25 -4 -28 hhcurveto
          -67 -48 41 57 79 81 72 181 83 hvcurveto
          5 3 14 69 rlineto
          -761 hlineto
          134 631 rlineto
          725 hlineto
          16 72 rlineto
          -726 91 callgsubr
          endchar
        </CharString>
        <CharString name="Epsilongreek">
          -64 937 73 -100 callsubr
          endchar
        </CharString>
        <CharString name="Epsilontonosgreek">
          102 191 15 callgsubr
          768 -1370 -100 callsubr
          endchar
        </CharString>
        <CharString name="Ercyrillic">
          44 396 1443 -69 callsubr
          endchar
        </CharString>
        <CharString name="Ereversedcyrillic">
          -82 callgsubr
          endchar
        </CharString>
        <CharString name="Escyrillic">
          242 1361 -93 callsubr
          endchar
        </CharString>
        <CharString name="Etagreek">
          214 1152 4 callgsubr
        </CharString>
        <CharString name="Etatonosgreek">
          380 191 15 callgsubr
          983 -1443 -18 callgsubr
        </CharString>
        <CharString name="Eth">
          239 178 72 rmoveto
          133 629 rlineto
          419 hlineto
          15 72 rlineto
          -419 hlineto
          127 598 rlineto
          346 hlineto
          339 176 -187 -313 -461 -304 -338 -455 hvcurveto
          -168 1371 rmoveto
          -142 -670 rlineto
          -133 hlineto
          -16 -72 rlineto
          134 hlineto
          -149 -701 rlineto
          477 hlineto
          505 332 368 512 345 -209 218 -375 hvcurveto
          endchar
        </CharString>
        <CharString name="Etilde">
          -64 937 73 -100 callsubr
          60 1551 -102 callgsubr
          endchar
        </CharString>
        <CharString name="Etildebelow">
          -64 937 73 -100 callsubr
          -332 -387 -102 callgsubr
          endchar
        </CharString>
        <CharString name="Euro">
          68 163 889 rmoveto
          -14 -66 rlineto
          200 hlineto
          -10 -54 -5 -56 -59 vvcurveto
          -15 0 -15 1 -15 vhcurveto
          -232 hlineto
          -14 -65 rlineto
          252 hlineto
          -340 47 264 -221 365 hhcurveto
          39 45 4 5 11 hvcurveto
          16 73 rlineto
          -5 -13 -45 -4 -37 hhcurveto
          -329 -230 191 297 -47 hvcurveto
          557 hlineto
          14 65 rlineto
          -578 hlineto
          -1 16 0 16 16 vvcurveto
          58 6 55 10 53 vhcurveto
          610 hlineto
          13 66 rlineto
          -606 hlineto
          297 89 264 192 350 hhcurveto
          66 70 -8 -14 58 hvcurveto
          17 73 rlineto
          13 -49 -84 11 -73 hhcurveto
          -403 -300 -222 -342 -93 hvcurveto
          endchar
        </CharString>
        <CharString name="F">
          -99 160 19 callsubr
          endchar
        </CharString>
        <CharString name="Fdotaccent">
          -99 160 19 callsubr
          778 1644 -100 callgsubr
        </CharString>
        <CharString name="G">
          -92 callsubr
          endchar
        </CharString>
        <CharString name="Gacute">
          -92 callsubr
          -397 1043 -79 callgsubr
        </CharString>
        <CharString name="Gammagreek">
          -22 202 hmoveto
          50 callgsubr
          730 hlineto
          15 73 rlineto
          -810 -98 callsubr
          endchar
        </CharString>
        <CharString name="Gbreve">
          -92 callsubr
          -679 1275 -75 callgsubr
          endchar
        </CharString>
        <CharString name="Gcaron">
          -92 callsubr
          -465 1043 -82 callsubr
        </CharString>
        <CharString name="Gcircumflex">
          -92 callsubr
          -350 1332 -89 callgsubr
        </CharString>
        <CharString name="Gcommaaccent">
          -92 callsubr
          -792 -988 -38 callsubr
        </CharString>
        <CharString name="Gdotaccent">
          -92 callsubr
          -405 1131 -100 callgsubr
        </CharString>
        <CharString name="Gecyrillic">
          71 callgsubr
          endchar
        </CharString>
        <CharString name="Geupturncyrillic">
          -84 457 1370 rmoveto
          747 hlineto
          70 331 rlineto
          -76 hlineto
          -54 -258 rlineto
          -752 -98 callsubr
          81 hlineto
          endchar
        </CharString>
        <CharString name="Gjecyrillic">
          71 callgsubr
          772 1556 -79 callgsubr
        </CharString>
        <CharString name="Gmacron">
          -92 callsubr
          -113 1166 -74 callsubr
        </CharString>
        <CharString name="H">
          214 1152 4 callgsubr
        </CharString>
        <CharString name="Hardsigncyrillic">
          329 847 hmoveto
          320 220 202 289 212 -163 152 -265 hvcurveto
          -345 hlineto
          125 588 rlineto
          -432 96 callsubr
          352 16 callgsubr
          595 783 rmoveto
          227 132 -118 -180 -245 -191 -168 -272 hvcurveto
          -395 hlineto
          152 711 rlineto
          endchar
        </CharString>
        <CharString name="Hbar">
          214 1238 777 rmoveto
          -912 hlineto
          69 327 rlineto
          912 hlineto
          197 72 rmoveto
          -102 hlineto
          57 267 rlineto
          -80 hlineto
          -57 -267 rlineto
          -912 hlineto
          57 267 rlineto
          -80 hlineto
          -57 -267 rlineto
          -98 hlineto
          -16 -72 rlineto
          99 hlineto
          -235 -1104 rlineto
          80 hlineto
          150 705 rlineto
          912 hlineto
          -150 -705 rlineto
          80 hlineto
          235 1104 rlineto
          101 hlineto
          endchar
        </CharString>
        <CharString name="Hbrevebelow">
          214 1152 hmoveto
          -89 callsubr
          -772 -155 6 callgsubr
        </CharString>
        <CharString name="Hcaron">
          214 1152 hmoveto
          -89 callsubr
          -155 1556 -82 callsubr
        </CharString>
        <CharString name="Hcedilla">
          214 1379 1443 rmoveto
          -141 -666 rlineto
          -912 hlineto
          141 666 rlineto
          -80 hlineto
          -307 -1443 rlineto
          14 hlineto
          -94 -147 -10 -42 52 -3 rlineto
          94 -7 51 -34 -64 vvcurveto
          -70 -60 -39 -88 -62 -49 14 22 -42 vhcurveto
          -13 -60 rlineto
          -22 44 58 -15 66 hhcurveto
          125 88 67 109 91 -68 53 -116 6 hvcurveto
          90 141 3 12 rlineto
          0 vlineto
          147 693 rlineto
          912 hlineto
          -150 -705 rlineto
          80 hlineto
          307 1443 rlineto
          endchar
        </CharString>
        <CharString name="Hcircumflex">
          214 1152 hmoveto
          -89 callsubr
          -40 1845 -89 callgsubr
        </CharString>
        <CharString name="Hdieresis">
          214 1152 hmoveto
          -89 callsubr
          -252 1605 -105 callsubr
        </CharString>
        <CharString name="Hdotaccent">
          214 1152 hmoveto
          -89 callsubr
          -95 1644 -100 callgsubr
        </CharString>
        <CharString name="Hdotbelow">
          214 1152 hmoveto
          -89 callsubr
          -500 -309 -100 callgsubr
        </CharString>
        <CharString name="I">
          -778 160 87 callsubr
        </CharString>
        <CharString name="I.1">
          -288 1004 1373 rmoveto
          15 70 rlineto
          -307 hlineto
          -80 hlineto
          -306 hlineto
          -15 -70 rlineto
          306 hlineto
          -277 -1303 rlineto
          -306 hlineto
          -15 -70 rlineto
          306 hlineto
          80 hlineto
          307 hlineto
          15 70 rlineto
          -307 hlineto
          277 1303 rlineto
          endchar
        </CharString>
        <CharString name="IAcyrillic">
          -65 callsubr
          endchar
        </CharString>
        <CharString name="IJ">
          179 160 hmoveto
          307 1443 -94 callgsubr
          330 303 -69 callgsubr
          endchar
        </CharString>
        <CharString name="IJacute">
          179 160 hmoveto
          307 1443 -94 callgsubr
          411 1556 rmoveto
          350 287 rlineto
          -100 hlineto
          -336 -287 rlineto
          1043 106 callgsubr
          -100 hlineto
          -336 -287 rlineto
          -952 -1253 -69 callgsubr
          endchar
        </CharString>
        <CharString name="IUcyrillic">
          781 1189 53 rmoveto
          -289 -186 209 320 442 279 366 379 290 185 -209 -320 -461 -291 -347 -367 hvcurveto
          -858 724 rmoveto
          141 666 rlineto
          -80 hlineto
          -307 -1443 rlineto
          80 hlineto
          150 705 rlineto
          326 hlineto
          -5 -42 -2 -42 -43 vvcurveto
          -355 214 -244 340 414 326 382 503 354 -215 246 -340 -368 -281 -296 -391 -72 vhcurveto
          endchar
        </CharString>
        <CharString name="Iacute">
          -778 160 hmoveto
          307 1443 -94 callgsubr
          411 1556 -79 callgsubr
        </CharString>
        <CharString name="Iacute.1">
          -288 1085 1843 rmoveto
          -100 hlineto
          -336 -287 rlineto
          86 hlineto
          -103 -113 rmoveto
          -306 hlineto
          -15 -70 rlineto
          306 hlineto
          -277 -1303 rlineto
          -306 hlineto
          -15 -70 rlineto
          306 hlineto
          80 hlineto
          307 hlineto
          15 70 rlineto
          -307 hlineto
          277 1303 rlineto
          307 hlineto
          15 70 rlineto
          -307 hlineto
          endchar
        </CharString>
        <CharString name="Ibreve">
          -778 160 hmoveto
          307 1443 -94 callgsubr
          129 1788 -75 callgsubr
          endchar
        </CharString>
        <CharString name="Ibreve.1">
          -288 931 1788 rmoveto
          -109 -16 -91 -71 -117 hhcurveto
          -116 -75 61 98 6 1 11 1 4 hvcurveto
          -64 hlineto
          -2 -6 -1 -15 -7 vvcurveto
          -127 100 -82 145 161 117 92 145 21 vhcurveto
          9 -415 rmoveto
          15 70 rlineto
          -307 hlineto
          -80 hlineto
          -306 hlineto
          -15 -70 rlineto
          306 hlineto
          -277 -1303 rlineto
          -306 hlineto
          -15 -70 rlineto
          306 hlineto
          80 hlineto
          307 hlineto
          15 70 rlineto
          -307 hlineto
          277 1303 rlineto
          endchar
        </CharString>
        <CharString name="Icaron">
          -778 160 hmoveto
          307 1443 -94 callgsubr
          343 1556 -82 callsubr
        </CharString>
        <CharString name="Icaron.1">
          -288 732 1556 rmoveto
          324 289 rlineto
          -90 hlineto
          -258 -232 rlineto
          -4 hlineto
          -159 232 rlineto
          -78 hlineto
          201 -289 rlineto
          -36 -113 rmoveto
          -306 hlineto
          -15 -70 rlineto
          306 hlineto
          -277 -1303 rlineto
          -306 hlineto
          -15 -70 rlineto
          306 hlineto
          80 hlineto
          307 hlineto
          15 70 rlineto
          -307 hlineto
          277 1303 rlineto
          307 hlineto
          15 70 rlineto
          -307 hlineto
          endchar
        </CharString>
        <CharString name="Icircumflex">
          -778 160 hmoveto
          307 1443 -94 callgsubr
          458 1845 -89 callgsubr
        </CharString>
        <CharString name="Icircumflex.1">
          -288 744 1788 rmoveto
          3 hlineto
          160 -232 rlineto
          78 hlineto
          -202 289 rlineto
          -64 hlineto
          -324 -289 rlineto
          90 hlineto
          519 -183 rmoveto
          15 70 rlineto
          -307 hlineto
          -80 hlineto
          -306 hlineto
          -15 -70 rlineto
          306 hlineto
          -277 -1303 rlineto
          -306 hlineto
          -15 -70 rlineto
          306 hlineto
          80 hlineto
          307 hlineto
          15 70 rlineto
          -307 hlineto
          277 1303 rlineto
          endchar
        </CharString>
        <CharString name="Icyrillic">
          77 callgsubr
        </CharString>
        <CharString name="Icyrillic.1">
          -268 1014 1373 rmoveto
          15 70 rlineto
          -307 hlineto
          -80 hlineto
          -306 hlineto
          -15 -70 rlineto
          306 hlineto
          -277 -1303 rlineto
          -306 hlineto
          -15 -70 rlineto
          306 hlineto
          80 hlineto
          307 hlineto
          15 70 rlineto
          -307 hlineto
          277 1303 rlineto
          endchar
        </CharString>
        <CharString name="Idblgrave">
          -778 160 hmoveto
          307 1443 -94 callgsubr
          203 1556 -31 callgsubr
        </CharString>
        <CharString name="Idblgrave.1">
          -288 871 1556 rmoveto
          -172 287 rlineto
          -85 hlineto
          184 -287 rlineto
          -197 0 rmoveto
          -171 287 rlineto
          -86 hlineto
          184 -287 rlineto
          476 -183 rmoveto
          15 70 rlineto
          -307 hlineto
          -80 hlineto
          -306 hlineto
          -15 -70 rlineto
          306 hlineto
          -277 -1303 rlineto
          -306 hlineto
          -15 -70 rlineto
          306 hlineto
          80 hlineto
          307 hlineto
          15 70 rlineto
          -307 hlineto
          277 1303 rlineto
          endchar
        </CharString>
        <CharString name="Idieresis">
          22 callgsubr
        </CharString>
        <CharString name="Idieresis.1">
          -288 869 1605 rmoveto
          36 31 30 36 37 -31 29 -36 -36 -31 -29 -37 -36 31 -30 36 hvcurveto
          -298 0 rmoveto
          36 30 30 36 37 -30 29 -36 -37 -30 -29 -37 -36 30 -30 37 hvcurveto
          433 -232 rmoveto
          15 70 rlineto
          -307 hlineto
          -80 hlineto
          -306 hlineto
          -15 -70 rlineto
          306 hlineto
          -277 -1303 rlineto
          -306 hlineto
          -15 -70 rlineto
          306 hlineto
          80 hlineto
          307 hlineto
          15 70 rlineto
          -307 hlineto
          277 1303 rlineto
          endchar
        </CharString>
        <CharString name="Idieresisacute">
          -778 160 hmoveto
          307 1443 -94 callgsubr
          351 1771 -29 callgsubr
        </CharString>
        <CharString name="Idieresisacute.1">
          -288 1012 1977 rmoveto
          -93 hlineto
          -243 -206 rlineto
          85 hlineto
          30 -153 rmoveto
          -36 29 -29 36 36 29 29 36 36 -29 29 -36 -36 -29 -29 -36 vhcurveto
          -229 -65 rmoveto
          36 29 29 36 36 -29 29 -36 -35 -30 -29 -36 -36 30 -29 35 hvcurveto
          442 -180 rmoveto
          15 70 rlineto
          -307 hlineto
          -80 hlineto
          -306 hlineto
          -15 -70 rlineto
          306 hlineto
          -277 -1303 rlineto
          -306 hlineto
          -15 -70 rlineto
          306 hlineto
          80 hlineto
          307 hlineto
          15 70 rlineto
          -307 hlineto
          277 1303 rlineto
          endchar
        </CharString>
        <CharString name="Idotaccent">
          -778 160 hmoveto
          307 1443 -94 callgsubr
          403 1644 -100 callgsubr
        </CharString>
        <CharString name="Idotaccent.1">
          -288 728 1644 rmoveto
          42 36 35 42 42 -36 36 -42 -42 -36 -36 -42 -42 36 -35 42 hvcurveto
          276 -271 rmoveto
          15 70 rlineto
          -307 hlineto
          -80 hlineto
          -306 hlineto
          -15 -70 rlineto
          306 hlineto
          -277 -1303 rlineto
          -306 hlineto
          -15 -70 rlineto
          306 hlineto
          80 hlineto
          307 hlineto
          15 70 rlineto
          -307 hlineto
          277 1303 rlineto
          endchar
        </CharString>
        <CharString name="Idotbelow">
          -778 160 hmoveto
          307 1443 -94 callgsubr
          -12 -309 -100 callgsubr
        </CharString>
        <CharString name="Idotbelow.1">
          -288 313 -154 rmoveto
          -42 -36 -36 -42 -42 36 -35 42 42 36 35 42 42 -36 36 -42 hvcurveto
          691 1527 rmoveto
          15 70 rlineto
          -307 hlineto
          -80 hlineto
          -306 hlineto
          -15 -70 rlineto
          306 hlineto
          -277 -1303 rlineto
          -306 hlineto
          -15 -70 rlineto
          306 hlineto
          80 hlineto
          307 hlineto
          15 70 rlineto
          -307 hlineto
          277 1303 rlineto
          endchar
        </CharString>
        <CharString name="Iecyrillic">
          -54 942 73 -100 callsubr
          endchar
        </CharString>
        <CharString name="Igrave">
          -778 160 hmoveto
          307 1443 -94 callgsubr
          324 1556 -34 callgsubr
          endchar
        </CharString>
        <CharString name="Igrave.1">
          -288 722 1556 rmoveto
          -171 287 rlineto
          -86 hlineto
          184 -287 rlineto
          355 -183 rmoveto
          15 70 rlineto
          -307 hlineto
          -80 hlineto
          -306 hlineto
          -15 -70 rlineto
          306 hlineto
          -277 -1303 rlineto
          -306 hlineto
          -15 -70 rlineto
          306 hlineto
          80 hlineto
          307 hlineto
          15 70 rlineto
          -307 hlineto
          277 1303 rlineto
          endchar
        </CharString>
        <CharString name="Ihookabove">
          -778 160 hmoveto
          307 1443 -94 callgsubr
          240 1754 -63 callgsubr
        </CharString>
        <CharString name="Ihookabove.1">
          -288 678 1539 rmoveto
          90 27 57 59 77 vvcurveto
          75 -62 52 -93 -32 -42 -9 -11 -19 vhcurveto
          -12 -55 rlineto
          12 24 36 8 36 hhcurveto
          62 36 -31 -49 -51 -41 -40 -66 -20 hvcurveto
          352 -210 rmoveto
          15 70 rlineto
          -307 hlineto
          -80 hlineto
          -306 hlineto
          -15 -70 rlineto
          306 hlineto
          -277 -1303 rlineto
          -306 hlineto
          -15 -70 rlineto
          306 hlineto
          80 hlineto
          307 hlineto
          15 70 rlineto
          -307 hlineto
          277 1303 rlineto
          endchar
        </CharString>
        <CharString name="Iicyrillic">
          237 1091 hmoveto
          -59 callgsubr
          endchar
        </CharString>
        <CharString name="Iinvertedbreve">
          -778 160 hmoveto
          307 1443 -94 callgsubr
          650 1551 -57 callsubr
        </CharString>
        <CharString name="Iinvertedbreve.1">
          -288 975 1551 rmoveto
          3 5 2 14 15 vvcurveto
          120 -105 83 -143 -161 -120 -96 -141 -16 vhcurveto
          64 hlineto
          107 13 93 73 119 hhcurveto
          115 76 -61 -92 -13 -2 -12 -2 -2 hvcurveto
          93 -178 rmoveto
          15 70 rlineto
          -307 hlineto
          -80 hlineto
          -306 hlineto
          -15 -70 rlineto
          306 hlineto
          -277 -1303 rlineto
          -306 hlineto
          -15 -70 rlineto
          306 hlineto
          80 hlineto
          307 hlineto
          15 70 rlineto
          -307 hlineto
          277 1303 rlineto
          endchar
        </CharString>
        <CharString name="Iishortcyrillic">
          237 1091 hmoveto
          -59 callgsubr
          -641 489 -77 callgsubr
        </CharString>
        <CharString name="Imacron">
          -778 160 hmoveto
          307 1443 -94 callgsubr
          695 1679 -74 callsubr
        </CharString>
        <CharString name="Imacron.1">
          -288 1020 1679 rmoveto
          -594 hlineto
          -13 -59 rlineto
          594 hlineto
          -375 -177 rmoveto
          -306 hlineto
          -15 -70 rlineto
          306 hlineto
          -277 -1303 rlineto
          -306 hlineto
          -15 -70 rlineto
          306 hlineto
          80 hlineto
          307 hlineto
          15 70 rlineto
          -307 hlineto
          277 1303 rlineto
          307 hlineto
          15 70 rlineto
          -307 hlineto
          endchar
        </CharString>
        <CharString name="Iocyrillic">
          -54 942 73 -100 callsubr
          -215 1605 -105 callsubr
        </CharString>
        <CharString name="Iogonek">
          -778 50 -393 rmoveto
          31 34 6 8 16 hvcurveto
          13 61 rlineto
          -9 -14 -24 -4 -32 hhcurveto
          -66 -48 41 58 76 50 63 146 92 hvcurveto
          5 3 306 1441 rlineto
          -80 hlineto
          -307 -1439 rlineto
          0 vlineto
          -131 -85 -62 -81 -89 vvcurveto
          -83 67 -59 96 vhcurveto
          endchar
        </CharString>
        <CharString name="Iogonek.1">
          -288 311 1373 rmoveto
          306 hlineto
          -277 -1303 rlineto
          -306 hlineto
          -15 -70 rlineto
          572 hlineto
          -1 -4 -125 -53 -87 -86 -13 -89 rlinecurve
          -95 -15 67 -66 111 hhcurveto
          34 34 5 7 15 hvcurveto
          13 59 rlineto
          -5 -15 -28 -4 -30 hhcurveto
          -79 -46 47 68 12 hvcurveto
          13 80 98 77 150 58 14 6 rcurveline
          14 65 rlineto
          -306 hlineto
          277 1303 rlineto
          306 -9 callsubr
          endchar
        </CharString>
        <CharString name="Iotadieresisgreek">
          22 callgsubr
        </CharString>
        <CharString name="Iotadieresisgreek.1">
          -288 869 1605 rmoveto
          36 31 30 36 37 -31 29 -36 -36 -31 -29 -37 -36 31 -30 36 hvcurveto
          -298 0 rmoveto
          36 30 30 36 37 -30 29 -36 -37 -30 -29 -37 -36 30 -30 37 hvcurveto
          433 -232 rmoveto
          15 70 rlineto
          -307 hlineto
          -80 hlineto
          -306 hlineto
          -15 -70 rlineto
          306 hlineto
          -277 -1303 rlineto
          -306 hlineto
          -15 -70 rlineto
          306 hlineto
          80 hlineto
          307 hlineto
          15 70 rlineto
          -307 hlineto
          277 1303 rlineto
          endchar
        </CharString>
        <CharString name="Iotagreek">
          -778 160 87 callsubr
        </CharString>
        <CharString name="Iotagreek.1">
          -288 1004 1373 rmoveto
          15 70 rlineto
          -307 hlineto
          -80 hlineto
          -306 hlineto
          -15 -70 rlineto
          306 hlineto
          -277 -1303 rlineto
          -306 hlineto
          -15 -70 rlineto
          306 hlineto
          80 hlineto
          307 hlineto
          15 70 rlineto
          -307 hlineto
          277 1303 rlineto
          endchar
        </CharString>
        <CharString name="Iotatonosgreek">
          -596 191 15 callgsubr
          -9 -1443 -68 callgsubr
          endchar
        </CharString>
        <CharString name="Iotatonosgreek.1">
          -77 436 1443 rmoveto
          -101 hlineto
          -144 -295 rlineto
          68 hlineto
          955 225 rmoveto
          15 70 rlineto
          -307 hlineto
          -80 hlineto
          -306 hlineto
          -15 -70 rlineto
          306 hlineto
          -277 -1303 rlineto
          -306 hlineto
          -15 -70 rlineto
          306 hlineto
          80 hlineto
          307 hlineto
          15 70 rlineto
          -307 hlineto
          277 1303 rlineto
          endchar
        </CharString>
        <CharString name="Itilde">
          -778 160 hmoveto
          307 1443 -94 callgsubr
          521 1551 -102 callgsubr
          endchar
        </CharString>
        <CharString name="Itilde.1">
          -288 972 1763 rmoveto
          -99 -20 -48 -54 -54 hhcurveto
          -102 -21 165 -135 hhcurveto
          -94 -75 -80 -132 -23 hvcurveto
          62 hlineto
          96 18 51 57 57 hhcurveto
          103 23 -165 132 hhcurveto
          90 70 76 136 28 hvcurveto
          -402 -320 rmoveto
          -306 hlineto
          -15 -70 rlineto
          306 hlineto
          -277 -1303 rlineto
          -306 hlineto
          -15 -70 rlineto
          306 hlineto
          80 hlineto
          307 hlineto
          15 70 rlineto
          -307 hlineto
          277 1303 rlineto
          307 hlineto
          15 70 rlineto
          -307 hlineto
          endchar
        </CharString>
        <CharString name="Itildebelow">
          -778 160 hmoveto
          307 1443 -94 callgsubr
          109 -387 -102 callgsubr
          endchar
        </CharString>
        <CharString name="Itildebelow.1">
          -288 50 -375 rmoveto
          96 18 51 57 57 hhcurveto
          103 23 -165 132 hhcurveto
          90 70 76 136 28 hvcurveto
          -62 hlineto
          -99 -20 -48 -54 -54 hhcurveto
          -102 -21 165 -135 hhcurveto
          -94 -75 -80 -132 -23 hvcurveto
          1016 1748 rmoveto
          15 70 rlineto
          -307 hlineto
          -80 hlineto
          -306 hlineto
          -15 -70 rlineto
          306 hlineto
          -277 -1303 rlineto
          -306 hlineto
          -15 -70 rlineto
          306 hlineto
          80 hlineto
          307 hlineto
          15 70 rlineto
          -307 hlineto
          277 1303 rlineto
          endchar
        </CharString>
        <CharString name="J">
          -167 64 303 -69 callgsubr
          endchar
        </CharString>
        <CharString name="Jcircumflex">
          -167 64 303 -69 callgsubr
          1085 1542 -89 callgsubr
        </CharString>
        <CharString name="Jecyrillic">
          -157 69 303 -69 callgsubr
          endchar
        </CharString>
        <CharString name="K">
          -67 callgsubr
          endchar
        </CharString>
        <CharString name="Kacute">
          -67 callgsubr
          770 1556 -79 callgsubr
        </CharString>
        <CharString name="Kacyrillic">
          34 1340 1443 rmoveto
          -114 hlineto
          -891 -679 rlineto
          -7 hlineto
          144 679 rlineto
          -80 hlineto
          -307 -1443 rlineto
          80 hlineto
          152 714 rlineto
          7 hlineto
          666 -714 rlineto
          102 hlineto
          -683 734 rlineto
          endchar
        </CharString>
        <CharString name="Kappagreek">
          -67 callgsubr
          endchar
        </CharString>
        <CharString name="Kcaron">
          -67 callgsubr
          703 1556 -82 callsubr
        </CharString>
        <CharString name="Kcommaaccent">
          -67 callgsubr
          301 -475 -38 callsubr
        </CharString>
        <CharString name="Kdotbelow">
          -67 callgsubr
          423 -309 -100 callgsubr
        </CharString>
        <CharString name="Kjecyrillic">
          34 1214 1843 rmoveto
          -100 hlineto
          -336 -287 rlineto
          86 hlineto
          476 -113 rmoveto
          -114 hlineto
          -891 -679 rlineto
          -7 hlineto
          144 679 rlineto
          -80 hlineto
          -307 -1443 rlineto
          80 hlineto
          152 714 rlineto
          7 hlineto
          666 -714 rlineto
          102 hlineto
          -683 734 rlineto
          endchar
        </CharString>
        <CharString name="Klinebelow">
          -67 callgsubr
          724 -231 -74 callsubr
        </CharString>
        <CharString name="L">
          -105 932 73 75 callgsubr
        </CharString>
        <CharString name="Lacute">
          -105 932 73 -36 callgsubr
          -426 1556 -79 callgsubr
        </CharString>
        <CharString name="Lambdagreek">
          92 843 1341 rmoveto
          4 hlineto
          208 -1341 rlineto
          76 hlineto
          -229 -8 callgsubr
          -842 -24 callgsubr
          90 hlineto
          endchar
        </CharString>
        <CharString name="Lcaron">
          -105 871 74 callsubr
          102 385 rlineto
          -15 -1370 75 callgsubr
        </CharString>
        <CharString name="Lcircumflexbelow">
          -105 932 73 -36 callgsubr
          -427 -165 -89 callgsubr
        </CharString>
        <CharString name="Lcommaaccent">
          -105 932 73 -36 callgsubr
          -592 -475 -38 callsubr
        </CharString>
        <CharString name="Ldotbelow">
          -105 932 73 -36 callgsubr
          -470 -309 -100 callgsubr
        </CharString>
        <CharString name="Ldotbelowmacron">
          -105 932 73 -36 callgsubr
          -470 -309 -101 callsubr
          328 1988 -74 callsubr
        </CharString>
        <CharString name="Ljecyrillic">
          950 420 470 rmoveto
          246 900 rlineto
          629 16 callgsubr
          496 hlineto
          323 218 213 282 221 -173 145 -255 hvcurveto
          -345 hlineto
          123 582 rlineto
          -784 hlineto
          -263 -966 rlineto
          -265 -73 -93 -147 -138 hhcurveto
          -18 -22 3 5 -12 hvcurveto
          -15 -73 rlineto
          -5 13 22 -4 21 hhcurveto
          191 114 163 316 87 hvcurveto
          1179 319 rmoveto
          218 141 -112 -192 -242 -192 -171 -272 hvcurveto
          -395 hlineto
          153 717 rlineto
          endchar
        </CharString>
        <CharString name="Llinebelow">
          -105 932 73 -36 callgsubr
          -169 -231 -74 callsubr
        </CharString>
        <CharString name="Lslash">
          -105 176 73 rmoveto
          122 576 464 216 15 73 -463 -216 153 721 rlineto
          -80 hlineto
          -162 -762 -148 -69 -15 -73 147 69 -129 -608 rlineto
          837 hlineto
          15 73 rlineto
          endchar
        </CharString>
        <CharString name="M">
          491 156 20 callsubr
        </CharString>
        <CharString name="Macute">
          491 156 -70 callgsubr
          1016 1556 -79 callgsubr
        </CharString>
        <CharString name="Mdotaccent">
          491 156 -70 callgsubr
          1009 1644 -100 callgsubr
        </CharString>
        <CharString name="Mdotbelow">
          491 156 -70 callgsubr
          624 -309 -100 callgsubr
        </CharString>
        <CharString name="Mugreek">
          491 156 20 callsubr
        </CharString>
        <CharString name="N">
          231 -88 callsubr
          endchar
        </CharString>
        <CharString name="Nacute">
          231 -88 callsubr
          914 1556 -79 callgsubr
        </CharString>
        <CharString name="Ncaron">
          231 -88 callsubr
          847 1556 -82 callsubr
        </CharString>
        <CharString name="Ncircumflexbelow">
          231 -88 callsubr
          535 -165 -89 callgsubr
        </CharString>
        <CharString name="Ncommaaccent">
          231 -88 callsubr
          370 -475 -38 callsubr
        </CharString>
        <CharString name="Ndotaccent">
          231 -88 callsubr
          907 1644 -100 callgsubr
        </CharString>
        <CharString name="Ndotbelow">
          231 -88 callsubr
          492 -309 -100 callgsubr
        </CharString>
        <CharString name="Ngrave">
          231 -88 callsubr
          827 1556 -34 callgsubr
          endchar
        </CharString>
        <CharString name="Njecyrillic">
          951 1038 hmoveto
          478 hlineto
          316 209 190 250 203 -166 134 -246 hvcurveto
          -345 hlineto
          141 666 rlineto
          -80 hlineto
          -141 -666 rlineto
          -876 hlineto
          142 666 -60 callgsubr
          150 705 rlineto
          875 hlineto
          -54 -633 rmoveto
          135 633 rlineto
          347 hlineto
          208 136 -102 -172 -211 -179 -148 -270 hvcurveto
          endchar
        </CharString>
        <CharString name="Nlinebelow">
          231 -88 callsubr
          793 -231 -74 callsubr
        </CharString>
        <CharString name="Ntilde">
          231 -88 callsubr
          1025 1551 -102 callgsubr
          endchar
        </CharString>
        <CharString name="Nugreek">
          231 -88 callsubr
          endchar
        </CharString>
        <CharString name="NumberSignCyrillic">
          952 157 hmoveto
          279 1313 rlineto
          7 hlineto
          614 -1313 rlineto
          77 53 callgsubr
          -79 hlineto
          -277 -1305 rlineto
          -8 hlineto
          -609 1305 rlineto
          -83 -98 callsubr
          1973 590 rmoveto
          14 69 rlineto
          -609 hlineto
          -15 -69 rlineto
          666 588 rmoveto
          -170 -116 -130 -149 -133 -85 88 138 170 115 131 149 132 87 -90 -137 vhcurveto
          77 1 rmoveto
          176 -116 116 -176 -198 -148 -159 -209 -178 114 -113 178 195 151 161 206 vhcurveto
          endchar
        </CharString>
        <CharString name="O">
          330 906 1390 -106 callsubr
          endchar
        </CharString>
        <CharString name="OE">
          1102 1232 hmoveto
          842 hlineto
          15 73 rlineto
          -761 hlineto
          134 631 rlineto
          724 hlineto
          16 72 rlineto
          -725 91 callgsubr
          -95 -452 rlineto
          -4 hlineto
          293 -47 -200 180 -290 hhcurveto
          -418 -320 -381 -481 -379 222 -244 342 233 205 125 199 128 hvcurveto
          2 hlineto
          90 539 rmoveto
          -440 -284 -349 -373 -295 -189 214 336 439 284 348 373 295 189 -214 -334 vhcurveto
          endchar
        </CharString>
        <CharString name="Oacute">
          331 906 1390 -106 callsubr
          230 1577 -79 callgsubr
        </CharString>
        <CharString name="Obreve">
          331 906 1390 -106 callsubr
          -51 1809 -75 callgsubr
          endchar
        </CharString>
        <CharString name="Ocaron">
          331 906 1390 -106 callsubr
          163 1577 -82 callsubr
        </CharString>
        <CharString name="Ocircumflex">
          331 906 1390 -106 callsubr
          278 1866 -89 callgsubr
        </CharString>
        <CharString name="Ocircumflexacute">
          331 906 1390 -106 callsubr
          197 1789 -54 callsubr
          121 3 -1 callsubr
          endchar
        </CharString>
        <CharString name="Ocircumflexdotbelow">
          331 906 1390 -106 callsubr
          278 1866 -93 callgsubr
          -545 -1865 -100 callgsubr
        </CharString>
        <CharString name="Ocircumflexgrave">
          331 906 1390 -106 callsubr
          197 1789 -54 callsubr
          320 3 33 callgsubr
          endchar
        </CharString>
        <CharString name="Ocircumflexhookabove">
          331 906 1390 -106 callsubr
          197 1789 -54 callsubr
          70 139 rmoveto
          11 24 39 9 34 hhcurveto
          61 36 -30 -49 -42 -28 -34 -48 -20 hvcurveto
          33 -41 rlineto
          68 30 39 52 66 vvcurveto
          71 -60 49 -88 -39 -40 -10 -10 -19 vhcurveto
          endchar
        </CharString>
        <CharString name="Ocircumflextilde">
          331 906 1390 -106 callsubr
          376 1848 -39 callsubr
        </CharString>
        <CharString name="Ocyrillic">
          341 911 1390 -106 callsubr
          endchar
        </CharString>
        <CharString name="Odblgrave">
          331 906 1390 -106 callsubr
          23 1577 -31 callgsubr
        </CharString>
        <CharString name="Odieresis">
          331 906 1390 -106 callsubr
          66 1626 -105 callsubr
        </CharString>
        <CharString name="Odieresismacron">
          331 906 1390 -106 callsubr
          57 1704 -40 callsubr
        </CharString>
        <CharString name="Odotaccent">
          331 906 1390 -106 callsubr
          223 1665 -100 callgsubr
        </CharString>
        <CharString name="Odotaccentmacron">
          331 906 1390 -106 callsubr
          208 1581 22 callsubr
        </CharString>
        <CharString name="Odotbelow">
          331 906 1390 -106 callsubr
          -65 -288 -100 callgsubr
        </CharString>
        <CharString name="Ograve">
          331 906 1390 -106 callsubr
          143 1577 -34 callgsubr
          endchar
        </CharString>
        <CharString name="Ohookabove">
          331 906 1390 -106 callsubr
          60 1775 -63 callgsubr
        </CharString>
        <CharString name="Ohorn">
          -87 callgsubr
          endchar
        </CharString>
        <CharString name="Ohornacute">
          -87 callgsubr
          -490 715 -79 callgsubr
        </CharString>
        <CharString name="Ohorndotbelow">
          -87 callgsubr
          -786 -1150 -100 callgsubr
        </CharString>
        <CharString name="Ohorngrave">
          -87 callgsubr
          -577 715 -34 callgsubr
          endchar
        </CharString>
        <CharString name="Ohornhookabove">
          -87 callgsubr
          -661 913 -63 callgsubr
        </CharString>
        <CharString name="Ohorntilde">
          -87 callgsubr
          -380 710 -102 callgsubr
          endchar
        </CharString>
        <CharString name="Ohungarumlaut">
          331 906 1390 -106 callsubr
          367 1577 7 callsubr
        </CharString>
        <CharString name="Oinvertedbreve">
          331 906 1390 -106 callsubr
          470 1572 -57 callsubr
        </CharString>
        <CharString name="Omacron">
          331 906 1390 -106 callsubr
          515 1700 -74 callsubr
        </CharString>
        <CharString name="Omacronacute">
          331 906 1390 -106 callsubr
          498 98 callgsubr
          274 163 -1 callsubr
          endchar
        </CharString>
        <CharString name="Omacrongrave">
          331 906 1390 -106 callsubr
          498 98 callgsubr
          378 163 rmoveto
          -169 206 rlineto
          -84 105 callsubr
        </CharString>
        <CharString name="Omegagreek">
          431 860 hmoveto
          -2 callsubr
        </CharString>
        <CharString name="Omegatonosgreek">
          506 191 15 callgsubr
          600 -1443 rmoveto
          -2 callsubr
        </CharString>
        <CharString name="Omicrongreek">
          331 906 1390 -106 callsubr
          endchar
        </CharString>
        <CharString name="Omicrontonosgreek">
          410 191 15 callgsubr
          650 -53 -106 callsubr
          endchar
        </CharString>
        <CharString name="Oogonek">
          -17 callgsubr
          endchar
        </CharString>
        <CharString name="Oogonekmacron">
          -17 callgsubr
          -134 837 -74 callsubr
        </CharString>
        <CharString name="Oslash">
          331 1321 1170 rmoveto
          52 -87 29 -108 -127 vvcurveto
          -445 -282 -350 -370 -160 -131 60 107 -87 vhcurveto
          -38 53 rmoveto
          -52 87 -29 108 127 vvcurveto
          445 282 350 371 159 131 -60 -107 88 vhcurveto
          259 169 rmoveto
          -45 45 -158 -158 rlineto
          118 -101 -150 67 -180 hhcurveto
          -421 -315 -382 -493 -147 37 -128 66 -99 hvcurveto
          -164 -164 46 -45 157 157 rlineto
          -117 101 150 -67 181 hhcurveto
          420 316 382 493 148 -37 127 -67 99 hvcurveto
          endchar
        </CharString>
        <CharString name="Oslashacute">
          331 1327 1843 rmoveto
          -100 hlineto
          -336 -287 rlineto
          86 hlineto
          344 -386 rmoveto
          52 -87 29 -108 -127 vvcurveto
          -445 -282 -350 -370 -160 -131 60 107 -87 vhcurveto
          -38 53 rmoveto
          -52 87 -29 108 127 vvcurveto
          445 282 350 371 159 131 -60 -107 88 vhcurveto
          259 169 rmoveto
          -45 45 -158 -158 rlineto
          118 -101 -150 67 -180 hhcurveto
          -421 -315 -382 -493 -147 37 -128 66 -99 hvcurveto
          -164 -164 46 -45 157 157 rlineto
          -117 101 150 -67 181 hhcurveto
          420 316 382 493 148 -37 127 -67 99 hvcurveto
          endchar
        </CharString>
        <CharString name="Otilde">
          331 906 1390 -106 callsubr
          341 1572 -102 callgsubr
          endchar
        </CharString>
        <CharString name="Otildeacute">
          331 906 1390 -106 callsubr
          207 1826 rmoveto
          83 hlineto
          216 172 rlineto
          -93 hlineto
          -97 -427 -48 callsubr
          endchar
        </CharString>
        <CharString name="Otildedieresis">
          331 906 1390 -106 callsubr
          316 1571 -48 callsubr
          -191 427 rmoveto
          -36 46 callgsubr
          36 35 30 29 36 36 -30 29 -35 hvcurveto
          293 hmoveto
          -35 46 callgsubr
          35 43 callgsubr
        </CharString>
        <CharString name="Otildemacron">
          331 906 1390 -106 callsubr
          566 1940 45 callgsubr
          -237 -309 -48 callsubr
          endchar
        </CharString>
        <CharString name="P">
          34 391 1443 -69 callsubr
          endchar
        </CharString>
        <CharString name="Pacute">
          34 391 1443 -69 callsubr
          506 902 -79 callgsubr
        </CharString>
        <CharString name="Pdotaccent">
          34 391 1443 -69 callsubr
          498 990 -100 callgsubr
        </CharString>
        <CharString name="Pecyrillic">
          210 1143 57 callsubr
        </CharString>
        <CharString name="Phigreek">
          509 710 -59 rmoveto
          81 hlineto
          28 130 rlineto
          546 4 319 330 424 vvcurveto
          316 -210 209 -378 19 vhcurveto
          25 119 rlineto
          -81 hlineto
          -25 -119 rlineto
          -547 -3 -318 -329 -426 vvcurveto
          -314 210 -211 378 -19 vhcurveto
          16 73 rmoveto
          -354 12 -169 193 273 vvcurveto
          380 279 291 490 8 vhcurveto
          -166 -1157 rmoveto
          246 1157 rlineto
          354 -13 169 -192 -272 vvcurveto
          -382 -279 -291 -490 -7 vhcurveto
          endchar
        </CharString>
        <CharString name="Pigreek">
          278 1174 hmoveto
          -53 callsubr
          -1052 -98 callsubr
          80 hlineto
          50 callgsubr
          892 16 callgsubr
          endchar
        </CharString>
        <CharString name="Psigreek">
          427 764 hmoveto
          74 353 404 6 205 163 89 420 rlinecurve
          107 501 rlineto
          -81 hlineto
          -105 -497 -75 -351 -165 -161 -363 -7 rlinecurve
          216 1016 rlineto
          -80 hlineto
          -217 -1016 rlineto
          -256 3 -149 125 223 vvcurveto
          41 6 45 10 49 vhcurveto
          112 530 rlineto
          -80 hlineto
          -113 -531 rlineto
          -10 -48 -5 -45 -44 vvcurveto
          -257 174 -156 296 -9 vhcurveto
          -75 -353 rlineto
          endchar
        </CharString>
        <CharString name="Q">
          330 1199 -177 rmoveto
          -125 242 rlineto
          246 139 163 296 354 vvcurveto
          369 -232 241 -342 -421 -315 -382 -493 -369 231 -241 343 93 88 20 35 80 vhcurveto
          109 -211 rlineto
          -367 230 rmoveto
          -298 -199 210 332 445 282 350 371 297 199 -210 -332 -319 -145 -270 -218 -127 hvcurveto
          -124 240 rlineto
          -81 hlineto
          141 -272 rlineto
          -31 -70 -76 -16 -79 hhcurveto
          endchar
        </CharString>
        <CharString name="R">
          -90 callgsubr
          endchar
        </CharString>
        <CharString name="Racute">
          -90 callgsubr
          500 865 -79 callgsubr
        </CharString>
        <CharString name="Rcaron">
          -90 callgsubr
          432 865 -82 callsubr
        </CharString>
        <CharString name="Rcommaaccent">
          -90 callgsubr
          59 -1166 -38 callsubr
        </CharString>
        <CharString name="Rdblgrave">
          -90 callgsubr
          292 865 -31 callgsubr
        </CharString>
        <CharString name="Rdotaccent">
          -90 callgsubr
          492 953 -100 callgsubr
        </CharString>
        <CharString name="Rdotbelow">
          -90 callgsubr
          181 -1000 -100 callgsubr
        </CharString>
        <CharString name="Rdotbelowmacron">
          -90 callgsubr
          181 -1000 -101 callsubr
          603 1988 -74 callsubr
        </CharString>
        <CharString name="Rhogreek">
          34 391 1443 -69 callsubr
          endchar
        </CharString>
        <CharString name="Rinvertedbreve">
          -90 callgsubr
          739 860 -57 callsubr
        </CharString>
        <CharString name="Rlinebelow">
          -90 callgsubr
          482 -922 -74 callsubr
        </CharString>
        <CharString name="S">
          72 111 406 rmoveto
          -101 callgsubr
          endchar
        </CharString>
        <CharString name="Sacute">
          72 111 406 rmoveto
          -101 callgsubr
          660 1150 -79 callgsubr
        </CharString>
        <CharString name="Sacutedotaccent">
          72 111 406 rmoveto
          -101 callgsubr
          729 1150 rmoveto
          350 287 rlineto
          -100 hlineto
          -336 -287 rlineto
          -133 89 -100 callgsubr
        </CharString>
        <CharString name="Scaron">
          72 111 406 rmoveto
          -101 callgsubr
          592 1150 -82 callsubr
        </CharString>
        <CharString name="Scarondotaccent">
          72 111 406 rmoveto
          -101 callgsubr
          586 1144 41 callgsubr
        </CharString>
        <CharString name="Scedilla">
          72 1263 1063 rmoveto
          240 -12 -201 161 -274 hhcurveto
          -275 -194 -153 -219 -172 104 -104 245 -92 hvcurveto
          121 -47 rlineto
          196 -74 83 -84 -139 vvcurveto
          -200 -168 -128 -243 -261 -180 144 210 -14 vhcurveto
          -79 hlineto
          8 -240 192 -163 271 -22 -82 -128 rcurveline
          -10 -42 52 -3 rlineto
          94 -7 51 -34 -64 vvcurveto
          -70 -60 -39 -88 -62 -49 14 22 -42 vhcurveto
          -13 -60 rlineto
          -22 44 58 -15 66 hhcurveto
          125 88 67 109 91 -68 53 -116 6 hvcurveto
          77 120 rlineto
          302 1 190 177 232 vvcurveto
          168 -101 109 -223 82 vhcurveto
          -125 48 rlineto
          -215 81 -86 82 137 vvcurveto
          168 153 127 234 231 163 -135 -193 14 vhcurveto
          endchar
        </CharString>
        <CharString name="Scircumflex">
          72 111 406 rmoveto
          -101 callgsubr
          707 1439 -89 callgsubr
        </CharString>
        <CharString name="Scommaaccent">
          72 111 406 rmoveto
          -101 callgsubr
          261 -881 -38 callsubr
        </CharString>
        <CharString name="Sdotaccent">
          72 111 406 rmoveto
          -101 callgsubr
          652 1238 -100 callgsubr
        </CharString>
        <CharString name="Sdotbelow">
          72 111 406 rmoveto
          -101 callgsubr
          383 -715 -100 callgsubr
        </CharString>
        <CharString name="Sdotbelowdotaccent">
          72 111 406 rmoveto
          -101 callgsubr
          383 -715 -101 callsubr
          269 1953 -100 callgsubr
        </CharString>
        <CharString name="Shacyrillic">
          647 85 hmoveto
          1496 36 callgsubr
          -292 -1370 rlineto
          -628 68 callsubr
          -627 81 callgsubr
          -80 hlineto
          endchar
        </CharString>
        <CharString name="Shchacyrillic">
          719 1707 -285 rmoveto
          76 358 rlineto
          -187 68 callsubr
          -628 68 callsubr
          -627 -26 callgsubr
          1607 hlineto
          -61 -285 rlineto
          endchar
        </CharString>
        <CharString name="Sigmagreek">
          128 188 76 rmoveto
          570 667 4 15 -290 609 1 4 rlineto
          879 hlineto
          16 72 rlineto
          -975 hlineto
          -13 -65 294 -621 -596 -695 -13 -62 rlineto
          1016 hlineto
          15 72 rlineto
          -909 hlineto
          endchar
        </CharString>
        <CharString name="Softsigncyrillic">
          31 680 783 rmoveto
          218 141 -111 -187 -245 -192 -168 -271 hvcurveto
          -395 hlineto
          152 711 rlineto
          -248 -783 rmoveto
          496 hlineto
          316 223 198 293 221 -173 143 -254 hvcurveto
          -345 hlineto
          124 588 rlineto
          -80 hlineto
          endchar
        </CharString>
        <CharString name="T">
          35 567 hmoveto
          -53 callgsubr
          endchar
        </CharString>
        <CharString name="Taugreek">
          34 567 hmoveto
          -53 callgsubr
          endchar
        </CharString>
        <CharString name="Tbar">
          34 1366 1370 rmoveto
          15 73 rlineto
          -1096 hlineto
          -15 -73 rlineto
          508 hlineto
          -130 -611 rlineto
          -390 hlineto
          -16 -72 rlineto
          390 hlineto
          -146 -687 rlineto
          81 hlineto
          146 687 rlineto
          406 hlineto
          15 72 rlineto
          -406 hlineto
          130 611 rlineto
          endchar
        </CharString>
        <CharString name="Tcaron">
          34 567 hmoveto
          -53 callgsubr
          344 1556 -82 callsubr
        </CharString>
        <CharString name="Tcedilla">
          34 285 1443 rmoveto
          -15 -73 rlineto
          508 hlineto
          -292 -1370 rlineto
          16 hlineto
          -94 -147 -10 -42 52 -3 rlineto
          94 -7 51 -34 -64 vvcurveto
          -70 -60 -39 -88 -62 -49 14 22 -42 vhcurveto
          -13 -60 rlineto
          -22 44 58 -15 66 hhcurveto
          125 88 67 109 91 -68 53 -116 6 hvcurveto
          90 141 3 12 rlineto
          -1 hlineto
          288 1358 rlineto
          508 hlineto
          15 73 rlineto
          endchar
        </CharString>
        <CharString name="Tcircumflexbelow">
          34 567 hmoveto
          -53 callgsubr
          32 -165 -89 callgsubr
        </CharString>
        <CharString name="Tcommaaccent">
          34 567 hmoveto
          -53 callgsubr
          -133 -475 -38 callsubr
        </CharString>
        <CharString name="Tdotaccent">
          34 567 hmoveto
          -53 callgsubr
          404 1644 -100 callgsubr
        </CharString>
        <CharString name="Tdotbelow">
          34 567 hmoveto
          -53 callgsubr
          -11 -309 -100 callgsubr
        </CharString>
        <CharString name="Tecyrillic">
          44 572 hmoveto
          -53 callgsubr
          endchar
        </CharString>
        <CharString name="Thetagreek">
          423 1216 691 rmoveto
          15 72 rlineto
          -685 hlineto
          -16 -72 rlineto
          267 -712 rmoveto
          420 317 382 493 369 -233 241 -342 -420 -317 -382 -493 -369 233 -241 342 hvcurveto
          657 869 rmoveto
          -445 -283 -350 -371 -298 -200 210 332 445 283 350 371 298 200 -210 -332 vhcurveto
          endchar
        </CharString>
        <CharString name="Thorn">
          23 73 hmoveto
          80 hlineto
          75 353 rlineto
          406 hlineto
          335 205 191 274 187 -149 153 -240 hvcurveto
          -386 hlineto
          61 285 rlineto
          -80 hlineto
          4 -358 rmoveto
          379 hlineto
          218 111 -126 -150 -223 -170 -161 -283 hvcurveto
          -395 hlineto
          endchar
        </CharString>
        <CharString name="Tlinebelow">
          34 567 hmoveto
          -53 callgsubr
          290 -231 -74 callsubr
        </CharString>
        <CharString name="Tsecyrillic">
          282 1261 -285 37 callsubr
        </CharString>
        <CharString name="Tshecyrillic">
          503 1125 795 rmoveto
          213 126 -141 -265 -57 hvcurveto
          -82 -389 rlineto
          80 hlineto
          82 386 rlineto
          299 64 -145 182 -270 hhcurveto
          -174 -141 -75 -76 -88 hvcurveto
          -10 hlineto
          139 654 rlineto
          509 hlineto
          15 73 rlineto
          -1095 96 callsubr
          507 hlineto
          -291 -1370 rlineto
          80 hlineto
          130 611 rlineto
          64 57 158 120 209 hhcurveto
          endchar
        </CharString>
        <CharString name="U">
          -103 callsubr
          endchar
        </CharString>
        <CharString name="Uacute">
          -103 callsubr
          324 1577 -79 callgsubr
        </CharString>
        <CharString name="Ubreve">
          -103 callsubr
          43 1809 -75 callgsubr
          endchar
        </CharString>
        <CharString name="Ucaron">
          -103 callsubr
          257 1577 -82 callsubr
        </CharString>
        <CharString name="Ucircumflex">
          -103 callsubr
          372 1866 -89 callgsubr
        </CharString>
        <CharString name="Ucircumflexbelow">
          -103 callsubr
          -22 -144 -89 callgsubr
        </CharString>
        <CharString name="Ucyrillic">
          22 -71 callsubr
          endchar
        </CharString>
        <CharString name="Udblgrave">
          -103 callsubr
          116 1577 -31 callgsubr
        </CharString>
        <CharString name="Udieresis">
          -103 callsubr
          160 1626 -105 callsubr
        </CharString>
        <CharString name="Udieresisacute">
          -103 callsubr
          265 1792 -29 callgsubr
        </CharString>
        <CharString name="Udieresisbelow">
          -103 callsubr
          -220 -319 13 callgsubr
        </CharString>
        <CharString name="Udieresiscaron">
          -103 callsubr
          298 1788 19 callgsubr
        </CharString>
        <CharString name="Udieresisgrave">
          -103 callsubr
          368 1792 27 callsubr
        </CharString>
        <CharString name="Udieresismacron">
          -103 callsubr
          151 1704 -40 callsubr
        </CharString>
        <CharString name="Udotbelow">
          -103 callsubr
          -65 -288 -100 callgsubr
        </CharString>
        <CharString name="Ugrave">
          -103 callsubr
          237 1577 -34 callgsubr
          endchar
        </CharString>
        <CharString name="Uhookabove">
          -103 callsubr
          154 1775 -63 callgsubr
        </CharString>
        <CharString name="Uhorn">
          -86 callsubr
          endchar
        </CharString>
        <CharString name="Uhornacute">
          -86 callsubr
          323 1577 -79 callgsubr
        </CharString>
        <CharString name="Uhorndotbelow">
          -86 callsubr
          -100 -288 -100 callgsubr
        </CharString>
        <CharString name="Uhorngrave">
          -86 callsubr
          236 1577 -34 callgsubr
          endchar
        </CharString>
        <CharString name="Uhornhookabove">
          -86 callsubr
          152 1775 -63 callgsubr
        </CharString>
        <CharString name="Uhorntilde">
          -86 callsubr
          433 1572 -102 callgsubr
          endchar
        </CharString>
        <CharString name="Uhungarumlaut">
          -103 callsubr
          461 1577 7 callsubr
        </CharString>
        <CharString name="Uinvertedbreve">
          -103 callsubr
          564 1572 -57 callsubr
        </CharString>
        <CharString name="Umacron">
          -103 callsubr
          609 1700 -74 callsubr
        </CharString>
        <CharString name="Umacrondieresis">
          -103 callsubr
          592 1629 30 callgsubr
        </CharString>
        <CharString name="Uogonek">
          234 814 -379 rmoveto
          13 61 rlineto
          -9 -15 -24 -4 -31 hhcurveto
          -67 -47 41 57 107 151 73 172 98 hvcurveto
          138 77 119 125 47 218 210 978 rcurveline
          -81 hlineto
          -207 -966 rlineto
          -261 -56 -200 -163 -256 hhcurveto
          -263 -151 137 223 -2 hvcurveto
          38 5 50 9 43 vhcurveto
          191 899 rlineto
          -81 hlineto
          -191 -900 rlineto
          -10 -45 -4 -42 -49 vvcurveto
          -256 1 181 -172 304 hhcurveto
          32 43 5 8 31 hvcurveto
          -4 vlineto
          -144 -79 -61 -72 -87 vvcurveto
          -84 112 callgsubr
          16 vhcurveto
          endchar
        </CharString>
        <CharString name="Upsilondieresisgreek">
          46 573 hmoveto
          -81 callsubr
          244 1605 -105 callsubr
        </CharString>
        <CharString name="Upsilongreek">
          46 573 hmoveto
          -81 callsubr
          endchar
        </CharString>
        <CharString name="Upsilontonosgreek">
          352 283 15 callgsubr
          452 -1443 56 callgsubr
        </CharString>
        <CharString name="Uring">
          -103 callsubr
          320 1585 -84 callsubr
        </CharString>
        <CharString name="Ushortcyrillic">
          21 -71 callsubr
          401 1802 -77 callgsubr
        </CharString>
        <CharString name="Utilde">
          -103 callsubr
          435 1572 -102 callgsubr
          endchar
        </CharString>
        <CharString name="Utildeacute">
          -103 callsubr
          301 1826 rmoveto
          83 hlineto
          216 172 rlineto
          -93 hlineto
          -97 -427 -48 callsubr
          endchar
        </CharString>
        <CharString name="Utildebelow">
          -103 callsubr
          56 -366 -102 callgsubr
          endchar
        </CharString>
        <CharString name="V">
          21 callgsubr
          endchar
        </CharString>
        <CharString name="Vdotbelow">
          21 callgsubr
          -10 -309 -100 callgsubr
        </CharString>
        <CharString name="Vecyrillic">
          84 601 -85 callgsubr
          endchar
        </CharString>
        <CharString name="Vtilde">
          21 callgsubr
          518 1551 -102 callgsubr
          endchar
        </CharString>
        <CharString name="W">
          654 1108 -74 callgsubr
          endchar
        </CharString>
        <CharString name="Wacute">
          654 1108 -74 callgsubr
          747 1556 -79 callgsubr
        </CharString>
        <CharString name="Wcircumflex">
          654 1108 -74 callgsubr
          795 1845 -89 callgsubr
        </CharString>
        <CharString name="Wdieresis">
          654 1108 -74 callgsubr
          583 1605 -105 callsubr
        </CharString>
        <CharString name="Wdotaccent">
          654 1108 -74 callgsubr
          740 1644 -100 callgsubr
        </CharString>
        <CharString name="Wdotbelow">
          654 1108 -74 callgsubr
          318 -309 -100 callgsubr
        </CharString>
        <CharString name="Wgrave">
          654 1108 -74 callgsubr
          661 1556 -34 callgsubr
          endchar
        </CharString>
        <CharString name="X">
          66 -27 38 callgsubr
        </CharString>
        <CharString name="Xacyrillic">
          76 -22 38 callgsubr
        </CharString>
        <CharString name="Xdieresis">
          66 -27 hmoveto
          -52 callsubr
          100 877 -105 callsubr
        </CharString>
        <CharString name="Xdotaccent">
          66 -27 hmoveto
          -52 callsubr
          257 916 -100 callgsubr
        </CharString>
        <CharString name="Xigreek">
          147 379 84 callsubr
          -16 -77 rlineto
          1020 hlineto
          16 77 rlineto
          -222 -740 rmoveto
          17 77 rlineto
          -891 hlineto
          -16 -77 rlineto
          -198 -626 rmoveto
          -16 -77 rlineto
          1020 hlineto
          16 77 rlineto
          endchar
        </CharString>
        <CharString name="Y">
          46 573 hmoveto
          -81 callsubr
          endchar
        </CharString>
        <CharString name="Yacute">
          46 573 hmoveto
          -81 callsubr
          408 1556 -79 callgsubr
        </CharString>
        <CharString name="Ycircumflex">
          46 573 hmoveto
          -81 callsubr
          456 1845 -89 callgsubr
        </CharString>
        <CharString name="Ydieresis">
          46 573 hmoveto
          -81 callsubr
          244 1605 -105 callsubr
        </CharString>
        <CharString name="Ydotaccent">
          46 573 hmoveto
          -81 callsubr
          401 1644 -100 callgsubr
        </CharString>
        <CharString name="Ydotbelow">
          46 573 hmoveto
          -81 callsubr
          -13 -309 -100 callgsubr
        </CharString>
        <CharString name="Yericyrillic">
          -67 callsubr
          endchar
        </CharString>
        <CharString name="Ygrave">
          46 573 hmoveto
          -81 callsubr
          321 1556 -34 callgsubr
          endchar
        </CharString>
        <CharString name="Yhookabove">
          46 573 hmoveto
          -81 callsubr
          238 1754 -63 callgsubr
        </CharString>
        <CharString name="Yicyrillic">
          -768 165 hmoveto
          307 1443 -94 callgsubr
          246 1605 -105 callsubr
        </CharString>
        <CharString name="Yicyrillic.1">
          -268 879 1605 rmoveto
          36 31 30 36 37 -31 29 -36 -36 -31 -29 -37 -36 31 -30 36 hvcurveto
          -298 0 rmoveto
          36 30 30 36 37 -30 29 -36 -37 -30 -29 -37 -36 30 -30 37 hvcurveto
          433 -232 rmoveto
          15 70 rlineto
          -307 hlineto
          -80 hlineto
          -306 hlineto
          -15 -70 rlineto
          306 hlineto
          -277 -1303 rlineto
          -306 hlineto
          -15 -70 rlineto
          306 hlineto
          80 hlineto
          307 hlineto
          15 70 rlineto
          -307 hlineto
          277 1303 rlineto
          endchar
        </CharString>
        <CharString name="Ymacron">
          46 573 hmoveto
          -81 callsubr
          693 1679 -74 callsubr
        </CharString>
        <CharString name="Ytilde">
          46 573 hmoveto
          -81 callsubr
          519 1551 -102 callgsubr
          endchar
        </CharString>
        <CharString name="Z">
          54 21 hmoveto
          -61 callsubr
          endchar
        </CharString>
        <CharString name="Zacute">
          53 21 hmoveto
          -61 callsubr
          870 1494 -79 callgsubr
        </CharString>
        <CharString name="Zcaron">
          53 21 hmoveto
          -61 callsubr
          803 1494 -82 callsubr
        </CharString>
        <CharString name="Zcircumflex">
          53 21 hmoveto
          -61 callsubr
          918 1783 -89 callgsubr
        </CharString>
        <CharString name="Zdotaccent">
          53 21 hmoveto
          -61 callsubr
          863 1582 -100 callgsubr
        </CharString>
        <CharString name="Zdotbelow">
          53 21 hmoveto
          -61 callsubr
          463 -371 -100 callgsubr
        </CharString>
        <CharString name="Zecyrillic">
          39 467 712 -81 callgsubr
          endchar
        </CharString>
        <CharString name="Zetagreek">
          53 21 hmoveto
          -61 callsubr
          endchar
        </CharString>
        <CharString name="Zhecyrillic">
          668 959 -43 callgsubr
          endchar
        </CharString>
        <CharString name="Zlinebelow">
          53 21 hmoveto
          -61 callsubr
          764 -293 -74 callsubr
        </CharString>
        <CharString name="a">
          -146 420 -107 callgsubr
          endchar
        </CharString>
        <CharString name="a.1">
          -23 507 -106 callgsubr
          endchar
        </CharString>
        <CharString name="aacute">
          -146 420 -107 callgsubr
          313 1257 -75 callsubr
        </CharString>
        <CharString name="aacute.1">
          -23 507 -106 callgsubr
          -70 1241 -75 callsubr
        </CharString>
        <CharString name="abreve">
          -146 420 -107 callgsubr
          32 1507 -66 callsubr
        </CharString>
        <CharString name="abreve.1">
          -23 507 -106 callgsubr
          -351 1 callsubr
        </CharString>
        <CharString name="abreveacute">
          -146 420 -107 callgsubr
          239 1498 rmoveto
          79 hlineto
          315 306 rlineto
          -89 hlineto
          21 -323 -80 callgsubr
          endchar
        </CharString>
        <CharString name="abreveacute.1">
          -23 507 -106 callgsubr
          -144 1482 rmoveto
          79 hlineto
          315 306 rlineto
          -89 hlineto
          21 -323 -80 callgsubr
          endchar
        </CharString>
        <CharString name="abrevedotbelow">
          -146 420 -107 callgsubr
          32 1507 -79 callsubr
          -86 -1800 -100 callgsubr
        </CharString>
        <CharString name="abrevedotbelow.1">
          -23 507 -106 callgsubr
          -351 1491 -79 callsubr
          -123 -1800 -100 callgsubr
        </CharString>
        <CharString name="abrevegrave">
          -146 420 -107 callgsubr
          360 1503 rmoveto
          -177 20 callgsubr
          272 -22 -80 callgsubr
          endchar
        </CharString>
        <CharString name="abrevegrave.1">
          -23 507 -106 callgsubr
          -23 1487 rmoveto
          -177 20 callgsubr
          272 -22 -80 callgsubr
          endchar
        </CharString>
        <CharString name="abrevehookabove">
          -146 420 -107 callgsubr
          180 1672 rmoveto
          14 27 37 9 37 hhcurveto
          57 35 -31 -46 -50 -42 -46 -64 -21 hvcurveto
          30 -41 rlineto
          81 26 59 67 76 vvcurveto
          71 -58 49 -87 -35 -44 -11 -13 -21 vhcurveto
          373 -244 -80 callgsubr
          endchar
        </CharString>
        <CharString name="abrevehookabove.1">
          -23 507 -106 callgsubr
          -203 1656 rmoveto
          14 27 37 9 37 hhcurveto
          57 35 -31 -46 -50 -42 -46 -64 -21 hvcurveto
          30 -41 rlineto
          81 26 59 67 76 vvcurveto
          71 -58 49 -87 -35 -44 -11 -13 -21 vhcurveto
          373 -244 -80 callgsubr
          endchar
        </CharString>
        <CharString name="abrevetilde">
          -146 420 -107 callgsubr
          565 1481 -35 callsubr
        </CharString>
        <CharString name="abrevetilde.1">
          -23 507 -106 callgsubr
          182 1465 -35 callsubr
        </CharString>
        <CharString name="acaron">
          -146 420 -107 callgsubr
          314 1257 -70 callsubr
        </CharString>
        <CharString name="acaron.1">
          -23 507 -106 callgsubr
          -69 61 callgsubr
        </CharString>
        <CharString name="acircumflex">
          -146 420 -107 callgsubr
          371 1560 -55 callsubr
        </CharString>
        <CharString name="acircumflex.1">
          -23 507 -106 callgsubr
          -12 10 callsubr
        </CharString>
        <CharString name="acircumflexacute">
          -146 420 -107 callgsubr
          359 1521 14 callsubr
        </CharString>
        <CharString name="acircumflexacute.1">
          -23 507 -106 callgsubr
          -24 1505 14 callsubr
        </CharString>
        <CharString name="acircumflexdotbelow">
          -146 420 -107 callgsubr
          371 1560 -73 callgsubr
          -553 -1550 -100 callgsubr
        </CharString>
        <CharString name="acircumflexdotbelow.1">
          -23 507 -106 callgsubr
          -12 1544 -73 callgsubr
          -590 -1550 -100 callgsubr
        </CharString>
        <CharString name="acircumflexgrave">
          -146 420 -107 callgsubr
          662 1503 rmoveto
          -178 20 callgsubr
          -235 18 -77 callsubr
          endchar
        </CharString>
        <CharString name="acircumflexgrave.1">
          -23 507 -106 callgsubr
          279 1487 rmoveto
          -178 20 callgsubr
          -235 18 -77 callsubr
          endchar
        </CharString>
        <CharString name="acircumflexhookabove">
          -146 420 -107 callgsubr
          419 1698 -48 callgsubr
        </CharString>
        <CharString name="acircumflexhookabove.1">
          -23 507 -106 callgsubr
          36 1682 -48 callgsubr
        </CharString>
        <CharString name="acircumflextilde">
          -146 420 -107 callgsubr
          359 1521 -55 callgsubr
        </CharString>
        <CharString name="acircumflextilde.1">
          -23 507 -106 callgsubr
          -24 1505 -55 callgsubr
        </CharString>
        <CharString name="acute">
          -249 553 1241 -75 callsubr
        </CharString>
        <CharString name="acutecmb">
          250 1241 -75 callsubr
        </CharString>
        <CharString name="acutecmb.short">
          314 1556 -79 callgsubr
        </CharString>
        <CharString name="acutedotaccentcmb">
          336 1241 rmoveto
          312 303 rlineto
          -93 hlineto
          -301 -11 callgsubr
          -150 25 -71 callgsubr
        </CharString>
        <CharString name="acutedotaccentcmb.short">
          387 1556 rmoveto
          350 287 rlineto
          -100 hlineto
          -336 -287 rlineto
          -133 89 -100 callgsubr
        </CharString>
        <CharString name="acyrillic">
          -146 420 -107 callgsubr
          endchar
        </CharString>
        <CharString name="acyrillic.1">
          -56 471 -106 callgsubr
          endchar
        </CharString>
        <CharString name="adblgrave">
          -146 420 -107 callgsubr
          197 1257 -41 callgsubr
        </CharString>
        <CharString name="adblgrave.1">
          -23 507 -106 callgsubr
          -186 1241 -41 callgsubr
        </CharString>
        <CharString name="adieresis">
          -146 420 -107 callgsubr
          138 1259 -105 callsubr
        </CharString>
        <CharString name="adieresis.1">
          -23 507 -106 callgsubr
          -245 1243 -105 callsubr
        </CharString>
        <CharString name="adieresismacron">
          -146 420 -107 callgsubr
          132 1230 -38 callgsubr
        </CharString>
        <CharString name="adieresismacron.1">
          -23 507 -106 callgsubr
          -251 1214 -38 callgsubr
        </CharString>
        <CharString name="adotaccent">
          -146 420 -107 callgsubr
          287 1257 -71 callgsubr
        </CharString>
        <CharString name="adotaccent.1">
          -23 507 -106 callgsubr
          -96 1241 -71 callgsubr
        </CharString>
        <CharString name="adotbelow">
          -146 420 -107 callgsubr
          10 -293 -100 callgsubr
        </CharString>
        <CharString name="adotbelow.1">
          -23 507 -106 callgsubr
          -410 -309 -100 callgsubr
        </CharString>
        <CharString name="adotmacron">
          -146 420 -107 callgsubr
          284 1227 0 callsubr
        </CharString>
        <CharString name="adotmacron.1">
          -23 507 -106 callgsubr
          -99 1211 0 callsubr
        </CharString>
        <CharString name="ae">
          662 1278 -90 callsubr
          endchar
        </CharString>
        <CharString name="aeacute">
          662 1278 -90 callsubr
          687 1189 -75 callsubr
        </CharString>
        <CharString name="aemacron">
          662 1278 -90 callsubr
          932 1306 -73 callsubr
        </CharString>
        <CharString name="agrave">
          -146 420 -107 callgsubr
          314 1257 -14 callsubr
        </CharString>
        <CharString name="agrave.1">
          -23 507 -106 callgsubr
          -69 62 callsubr
        </CharString>
        <CharString name="ahookabove">
          -146 420 -107 callgsubr
          164 1433 -63 callsubr
        </CharString>
        <CharString name="ahookabove.1">
          -23 507 -106 callgsubr
          -219 1417 -63 callsubr
        </CharString>
        <CharString name="ainvertedbreve">
          -146 420 -107 callgsubr
          544 1228 -60 callsubr
        </CharString>
        <CharString name="ainvertedbreve.1">
          -23 507 -106 callgsubr
          161 1212 -60 callsubr
        </CharString>
        <CharString name="alphagreek">
          -18 callsubr
          endchar
        </CharString>
        <CharString name="alphatonosgreek">
          -18 callsubr
          258 1135 26 callsubr
        </CharString>
        <CharString name="amacron">
          -146 420 -107 callgsubr
          558 1374 -73 callsubr
        </CharString>
        <CharString name="amacron.1">
          -23 507 -106 callgsubr
          175 1358 -73 callsubr
        </CharString>
        <CharString name="ampersand">
          343 543 1146 rmoveto
          136 135 117 160 146 97 -85 -123 -134 -124 -121 -272 -99 vhcurveto
          -104 147 -38 84 78 vvcurveto
          31 -1098 rmoveto
          -212 -149 130 174 146 107 120 212 87 hvcurveto
          116 49 369 -535 rlineto
          -112 -130 -160 -59 -153 hhcurveto
          592 -48 rmoveto
          93 hlineto
          -144 210 123 129 95 173 28 165 rlinecurve
          16 84 rlineto
          -76 hlineto
          -16 -82 -24 -140 -82 -156 -105 -114 rlinecurve
          -354 512 rlineto
          309 117 131 135 170 vvcurveto
          152 -131 112 -185 -214 -165 -145 -179 -88 42 -96 105 -148 vhcurveto
          -114 -48 rlineto
          -248 -103 -117 -136 -182 vvcurveto
          -205 193 -159 247 177 164 64 119 142 vhcurveto
          endchar
        </CharString>
        <CharString name="anoteleia">
          -612 390 814 23 callsubr
          endchar
        </CharString>
        <CharString name="aogonek">
          -146 419 55 rmoveto
          -155 -105 84 123 150 128 92 224 12 hvcurveto
          345 20 -38 -174 rlineto
          -175 -38 -165 -132 -196 hhcurveto
          309 -431 rmoveto
          12 60 rlineto
          -8 -16 -25 92 callgsubr
          79 86 75 173 73 hvcurveto
          2 1 147 690 rlineto
          6 27 4 30 32 vvcurveto
          169 -137 111 -208 -222 -165 -121 -187 -36 vhcurveto
          80 hlineto
          146 32 127 92 179 hhcurveto
          170 102 -82 83 callgsubr
          -19 -87 -356 -20 rlineto
          -276 -15 -156 -117 -193 vvcurveto
          -157 134 -112 189 161 142 80 120 73 vhcurveto
          4 hlineto
          -36 -172 rlineto
          -179 -77 -86 -87 -101 vvcurveto
          -82 67 -58 95 32 34 6 8 17 vhcurveto
          endchar
        </CharString>
        <CharString name="aogonek.1">
          -23 507 -97 callsubr
          344 -422 rmoveto
          12 59 rlineto
          -5 -15 -28 -4 -27 hhcurveto
          -68 -45 38 57 79 80 74 165 65 hvcurveto
          8 3 221 1042 rlineto
          -75 3 callgsubr
          -6 hlineto
          190 -21 -146 128 -196 hhcurveto
          -299 -236 -303 -349 -252 154 -168 227 164 162 99 153 85 hvcurveto
          4 hlineto
          -47 -221 rlineto
          -173 -73 -80 -81 -101 vvcurveto
          -82 66 -58 97 30 34 5 7 17 vhcurveto
          endchar
        </CharString>
        <CharString name="approxequal">
          68 886 583 -2 callgsubr
        </CharString>
        <CharString name="approxequal.uc">
          68 924 762 -2 callgsubr
        </CharString>
        <CharString name="aring">
          -146 420 -107 callgsubr
          290 1177 -84 callsubr
        </CharString>
        <CharString name="aring.1">
          -23 507 -106 callgsubr
          -93 1161 -84 callsubr
        </CharString>
        <CharString name="aringacute">
          -146 420 -107 callgsubr
          295 1626 -9 callgsubr
        </CharString>
        <CharString name="aringacute.1">
          -23 507 -106 callgsubr
          -88 1610 -9 callgsubr
        </CharString>
        <CharString name="aringbelow">
          -146 420 -107 callgsubr
          1 -428 -84 callsubr
        </CharString>
        <CharString name="aringbelow.1">
          -23 507 -106 callgsubr
          -419 -444 -84 callsubr
        </CharString>
        <CharString name="asciicircum">
          -341 619 1320 rmoveto
          6 hlineto
          145 -518 rlineto
          77 hlineto
          -173 603 rlineto
          -74 hlineto
          -429 -603 rlineto
          82 hlineto
          endchar
        </CharString>
        <CharString name="asciitilde">
          68 863 515 rmoveto
          133 93 113 174 25 hvcurveto
          -76 hlineto
          -126 -20 -59 -88 -94 -131 -51 235 -170 hhcurveto
          -136 -99 -119 -169 -21 hvcurveto
          76 hlineto
          124 20 62 91 95 130 50 -235 173 hhcurveto
          endchar
        </CharString>
        <CharString name="asterisk">
          -170 925 861 rmoveto
          37 49 -251 186 308 128 -21 58 -304 -137 61 320 -63 7 -53 -324 -247 195 -38 -49 249 -184 -305 -127 21 -58 304 135 -60 -319 63 -7 52 321 rlineto
          endchar
        </CharString>
        <CharString name="asterisk.uc">
          68 1102 365 rmoveto
          42 54 -392 290 482 200 -24 64 -473 -204 90 495 -67 7 -84 -502 -388 298 -42 -54 392 -289 -479 -197 25 -65 474 206 -92 -497 68 -7 83 496 rlineto
          endchar
        </CharString>
        <CharString name="at">
          618 1056 1433 -36 callsubr
        </CharString>
        <CharString name="at.uc">
          618 1082 1557 -36 callsubr
        </CharString>
        <CharString name="atilde">
          -146 420 -107 callgsubr
          425 1259 -102 callgsubr
          endchar
        </CharString>
        <CharString name="atilde.1">
          -23 507 -106 callgsubr
          42 1243 -102 callgsubr
          endchar
        </CharString>
        <CharString name="austral">
          68 1048 hmoveto
          79 hlineto
          -76 458 rlineto
          148 hlineto
          13 65 rlineto
          -171 hlineto
          -35 210 rlineto
          251 hlineto
          14 65 rlineto
          -275 hlineto
          -106 645 rlineto
          -79 hlineto
          -381 -645 rlineto
          -271 hlineto
          -14 -65 rlineto
          247 hlineto
          -124 -210 rlineto
          -168 hlineto
          -14 -65 rlineto
          145 hlineto
          -271 -458 rlineto
          91 hlineto
          267 458 rlineto
          657 hlineto
          -146 878 rmoveto
          7 hlineto
          87 -538 rlineto
          -409 hlineto
          451 -275 rmoveto
          -610 hlineto
          122 210 rlineto
          455 hlineto
          endchar
        </CharString>
        <CharString name="b">
          -58 callgsubr
          endchar
        </CharString>
        <CharString name="backslash">
          -524 360 -301 104 callgsubr
        </CharString>
        <CharString name="backslash.uc">
          -524 392 -150 104 callgsubr
        </CharString>
        <CharString name="baht">
          68 523 72 rmoveto
          137 646 rlineto
          233 139 -107 -176 -208 -188 -155 -254 hvcurveto
          -437 0 rmoveto
          138 646 rlineto
          304 hlineto
          -137 -646 rlineto
          -28 1299 rmoveto
          304 hlineto
          -124 -582 rlineto
          -304 hlineto
          369 0 rmoveto
          124 582 rlineto
          204 -5 101 -83 -159 vvcurveto
          -194 -167 -141 -237 vhcurveto
          126 -35 rmoveto
          215 30 144 154 202 vvcurveto
          188 -135 111 -236 4 vhcurveto
          33 154 rlineto
          -65 hlineto
          -33 -154 rlineto
          -384 hlineto
          -307 -1443 rlineto
          385 hlineto
          -36 -169 rlineto
          65 hlineto
          36 169 rlineto
          82 hlineto
          304 220 186 256 161 -114 117 -175 27 hvcurveto
          endchar
        </CharString>
        <CharString name="bar">
          -524 218 -301 86 callsubr
        </CharString>
        <CharString name="bar.uc">
          -524 250 -150 86 callsubr
        </CharString>
        <CharString name="bdotaccent">
          -58 callgsubr
          -111 1590 -100 callgsubr
        </CharString>
        <CharString name="bdotbelow">
          -58 callgsubr
          -121 -363 -100 callgsubr
        </CharString>
        <CharString name="becyrillic">
          -34 673 1040 rmoveto
          -159 -146 -74 -147 -91 hvcurveto
          -7 hlineto
          102 338 139 171 319 3 rrcurveto
          59 76 4 4 40 hvcurveto
          78 7 61 12 37 17 15 71 rcurveline
          -41 -17 -72 -14 -69 -5 rrcurveto
          -4 -41 -74 -4 -55 hhcurveto
          -396 -5 -156 -217 -110 -405 rrcurveto
          -28 -104 -27 -112 -118 vvcurveto
          -279 166 -179 255 312 222 268 357 259 -162 173 -247 vhcurveto
          -119 -986 rmoveto
          -211 -138 143 227 304 189 241 265 210 133 -142 -230 -302 -193 -241 -255 hvcurveto
          endchar
        </CharString>
        <CharString name="betagreek">
          35 309 995 rmoveto
          -284 -1336 rlineto
          78 hlineto
          136 642 rlineto
          3 hlineto
          -186 28 164 -131 200 hhcurveto
          297 175 196 267 175 -99 116 -189 39 hvcurveto
          4 vlineto
          188 41 112 135 190 vvcurveto
          192 -134 121 -213 -254 -138 -136 -329 -70 vhcurveto
          237 -254 rmoveto
          120 hlineto
          224 139 -113 -191 -228 -161 -155 -226 -213 -155 145 207 39 6 52 9 43 hvcurveto
          96 451 rlineto
          279 60 126 119 193 hhcurveto
          184 97 -93 -163 -192 -151 -129 -218 hvcurveto
          -114 hlineto
          endchar
        </CharString>
        <CharString name="bitcoin">
          68 185 103 rmoveto
          128 599 rlineto
          318 hlineto
          229 133 -94 -160 -199 -179 -146 -246 hvcurveto
          -120 1231 rmoveto
          307 hlineto
          210 97 -71 -153 -194 -170 -145 -236 hvcurveto
          -328 hlineto
          465 -30 rmoveto
          196 24 151 164 192 vvcurveto
          168 -97 94 -194 18 vhcurveto
          45 214 rlineto
          -63 hlineto
          -45 -211 rlineto
          -4 -3 0 -4 hhcurveto
          -161 hlineto
          45 211 rlineto
          -63 hlineto
          -45 -211 rlineto
          -165 hlineto
          -292 -1371 rlineto
          165 hlineto
          -45 -211 rlineto
          64 hlineto
          44 211 rlineto
          172 hlineto
          -44 -211 rlineto
          63 hlineto
          44 211 rlineto
          12 hlineto
          293 209 174 245 151 -108 107 -172 24 hvcurveto
          endchar
        </CharString>
        <CharString name="blinebelow">
          -58 callgsubr
          180 -285 -74 callsubr
        </CharString>
        <CharString name="braceleft">
          -524 254 291 -15 callgsubr
        </CharString>
        <CharString name="braceleft.uc">
          -524 285 441 -15 callgsubr
        </CharString>
        <CharString name="braceright">
          -524 484 852 -15 callsubr
        </CharString>
        <CharString name="braceright.uc">
          -524 516 1002 -15 callsubr
        </CharString>
        <CharString name="bracketleft">
          -524 455 84 callsubr
          -371 -1744 rlineto
          371 hlineto
          14 65 rlineto
          -296 hlineto
          344 1614 rlineto
          296 hlineto
          14 65 rlineto
          endchar
        </CharString>
        <CharString name="bracketleft.uc">
          -524 487 1593 rmoveto
          -371 -1744 rlineto
          371 hlineto
          14 65 rlineto
          -296 hlineto
          344 1614 rlineto
          296 hlineto
          14 65 rlineto
          endchar
        </CharString>
        <CharString name="bracketright">
          -524 283 -301 63 callsubr
        </CharString>
        <CharString name="bracketright.uc">
          -524 315 -151 63 callsubr
        </CharString>
        <CharString name="breve">
          -208 452 1 callsubr
        </CharString>
        <CharString name="breveacutecmb">
          182 1508 rmoveto
          79 hlineto
          315 306 rlineto
          -89 hlineto
          21 -323 -80 callgsubr
          endchar
        </CharString>
        <CharString name="breveacutecmb.short">
          235 1771 -1 callsubr
          -200 -426 -41 callsubr
        </CharString>
        <CharString name="brevebelowcmb">
          -377 -155 6 callgsubr
        </CharString>
        <CharString name="brevecmb">
          -31 1 callsubr
        </CharString>
        <CharString name="brevecmb.short">
          36 1788 -75 callgsubr
          endchar
        </CharString>
        <CharString name="brevecyrillic">
          -232 433 1496 -83 callgsubr
        </CharString>
        <CharString name="brevecyrillic.short">
          46 1793 -77 callgsubr
        </CharString>
        <CharString name="brevegravecmb">
          303 1513 rmoveto
          -177 20 callgsubr
          272 -22 -80 callgsubr
          endchar
        </CharString>
        <CharString name="brevegravecmb.short">
          373 1771 26 callgsubr
        </CharString>
        <CharString name="brevehookabovecmb">
          123 1682 rmoveto
          14 27 37 9 37 hhcurveto
          57 35 -31 -46 -50 -42 -46 -64 -21 hvcurveto
          30 -41 rlineto
          81 26 59 67 76 vvcurveto
          71 -58 49 -87 -35 -44 -11 -13 -21 vhcurveto
          373 -244 -80 callgsubr
          endchar
        </CharString>
        <CharString name="brevehookabovecmb.short">
          159 1946 rmoveto
          11 25 40 9 36 hhcurveto
          63 36 -33 -47 -44 -30 -35 -50 -21 hvcurveto
          35 -42 rlineto
          71 31 39 54 67 vvcurveto
          71 -60 54 -92 -38 -43 -10 -10 -19 vhcurveto
          106 -450 -41 callsubr
        </CharString>
        <CharString name="brevetildecmb">
          508 1491 -35 callsubr
        </CharString>
        <CharString name="brevetildecmb.short">
          461 1824 rmoveto
          87 73 73 110 24 hvcurveto
          -64 hlineto
          -78 -17 -46 -46 -52 -91 -1 142 -121 hhcurveto
          -88 -74 -72 -110 -22 hvcurveto
          64 hlineto
          76 15 49 48 50 91 1 -143 122 hhcurveto
          -183 -273 -41 callsubr
        </CharString>
        <CharString name="brokenbar">
          -524 445 765 61 callsubr
        </CharString>
        <CharString name="brokenbar.uc">
          -524 477 916 61 callsubr
        </CharString>
        <CharString name="bullet">
          -170 543 346 34 callsubr
        </CharString>
        <CharString name="bullet.uc">
          -170 578 510 34 callsubr
        </CharString>
        <CharString name="c">
          -117 648 1057 -94 callsubr
          endchar
        </CharString>
        <CharString name="cacute">
          -117 648 1057 -94 callsubr
          123 184 -75 callsubr
        </CharString>
        <CharString name="caron">
          -249 682 61 callgsubr
        </CharString>
        <CharString name="caroncmb">
          251 61 callgsubr
        </CharString>
        <CharString name="caroncmb.short">
          250 1556 -82 callsubr
        </CharString>
        <CharString name="carondotaccentcmb">
          182 1241 40 callsubr
        </CharString>
        <CharString name="carondotaccentcmb.short">
          244 1550 41 callgsubr
        </CharString>
        <CharString name="caronslovak">
          -366 595 74 callsubr
          103 385 rlineto
          endchar
        </CharString>
        <CharString name="ccaron">
          -117 648 1057 -94 callsubr
          124 184 -70 callsubr
        </CharString>
        <CharString name="ccedilla">
          -117 1041 717 rmoveto
          1 0 0 1 vvcurveto
          194 -17 -150 144 -226 hhcurveto
          -303 -225 -275 -358 -243 138 -173 225 -23 hvcurveto
          -85 -132 -10 -42 52 -3 rlineto
          94 -7 51 -34 -64 vvcurveto
          -70 -60 -39 -88 -62 -49 14 22 -42 vhcurveto
          -13 -60 rlineto
          -22 44 58 -15 66 hhcurveto
          125 88 67 109 91 -68 53 -116 6 hvcurveto
          79 124 196 5 158 117 65 179 rlinecurve
          -78 hlineto
          -140 -58 -133 -90 -162 hhcurveto
          -201 -136 147 225 318 195 242 254 177 123 -111 -158 18 hvcurveto
          endchar
        </CharString>
        <CharString name="ccedillaacute">
          -117 1083 1544 rmoveto
          -93 hlineto
          -301 -303 rlineto
          82 hlineto
          -373 -1388 rmoveto
          -10 -42 52 -3 rlineto
          94 -7 51 -34 -64 vvcurveto
          -70 -60 -39 -88 -62 -49 14 22 -42 vhcurveto
          -13 -60 rlineto
          -22 44 58 -15 66 hhcurveto
          125 88 67 109 91 -68 53 -116 6 hvcurveto
          79 124 196 5 158 117 65 179 rlinecurve
          -78 hlineto
          -140 -58 -133 -90 -162 hhcurveto
          -201 -136 147 225 318 195 242 254 177 123 -111 -158 18 hvcurveto
          76 hlineto
          1 0 0 1 vvcurveto
          194 -17 -150 144 -226 hhcurveto
          -303 -225 -275 -358 -243 138 -173 225 -23 hvcurveto
          endchar
        </CharString>
        <CharString name="ccircumflex">
          -117 648 1057 -94 callsubr
          181 487 -55 callsubr
        </CharString>
        <CharString name="cdotaccent">
          -117 648 1057 -94 callsubr
          97 184 -71 callgsubr
        </CharString>
        <CharString name="cedi">
          68 199 595 rmoveto
          447 268 353 338 16 2 0 -1 5 vhcurveto
          -284 -1338 rlineto
          -217 43 -128 202 294 vvcurveto
          1015 -220 rmoveto
          -83 hlineto
          -205 -67 -171 -124 -236 hhcurveto
          -17 -17 1 2 -16 hvcurveto
          285 1341 223 -28 132 -145 12 -227 rlinecurve
          0 0 -2 -1 vvcurveto
          79 hlineto
          1 0 3 1 vvcurveto
          248 -173 191 -259 31 vhcurveto
          30 135 rlineto
          -65 hlineto
          -27 -129 rlineto
          -7 -1 0 -21 hhcurveto
          -394 -304 -375 -508 -325 158 -232 253 -47 hvcurveto
          -32 -150 rlineto
          64 hlineto
          31 143 rlineto
          -1 16 19 -1 18 hhcurveto
          287 208 150 253 75 hvcurveto
          endchar
        </CharString>
        <CharString name="cedilla">
          -249 242 -189 -92 callgsubr
        </CharString>
        <CharString name="cedillacmb">
          -188 -189 -92 callgsubr
        </CharString>
        <CharString name="cent">
          68 1092 427 rmoveto
          -80 hlineto
          -129 -49 -141 -84 -169 hhcurveto
          -212 -133 145 229 336 209 262 270 176 128 -101 -146 22 hvcurveto
          78 hlineto
          4 -1 5 4 vvcurveto
          -25 160 -132 120 -176 19 43 199 rcurveline
          -77 hlineto
          -42 -194 rlineto
          -316 -7 -237 -291 -381 vvcurveto
          -235 135 -164 212 -29 vhcurveto
          -46 -217 rlineto
          77 hlineto
          45 211 219 4 172 111 50 169 rlinecurve
          endchar
        </CharString>
        <CharString name="checyrillic">
          -154 799 hmoveto
          21 callsubr
        </CharString>
        <CharString name="chigreek">
          -32 913 -349 rmoveto
          23 22 4 6 23 hvcurveto
          14 68 rlineto
          -5 -22 -20 -3 -19 hhcurveto
          -73 -31 29 86 -25 hvcurveto
          -144 491 528 713 rlineto
          -87 hlineto
          -461 -632 rlineto
          -7 hlineto
          -147 499 rlineto
          102 -31 -56 39 -90 hhcurveto
          -20 -26 -4 -6 -24 hvcurveto
          -14 -68 rlineto
          5 17 28 3 17 hhcurveto
          71 36 -34 -82 24 hvcurveto
          154 -522 -520 -681 rlineto
          88 hlineto
          452 599 rlineto
          7 hlineto
          137 -465 rlineto
          -107 32 42 -35 102 hhcurveto
          endchar
        </CharString>
        <CharString name="circumflex">
          -249 749 10 callsubr
        </CharString>
        <CharString name="circumflexacutecmb">
          302 1531 14 callsubr
        </CharString>
        <CharString name="circumflexacutecmb.short">
          24 callsubr
          121 3 -1 callsubr
          endchar
        </CharString>
        <CharString name="circumflexbelowcmb">
          -62 -165 -89 callgsubr
        </CharString>
        <CharString name="circumflexcmb">
          308 10 callsubr
        </CharString>
        <CharString name="circumflexcmb.short">
          365 1845 -89 callgsubr
        </CharString>
        <CharString name="circumflexgravecmb">
          605 1513 rmoveto
          -178 20 callgsubr
          -235 18 -77 callsubr
          endchar
        </CharString>
        <CharString name="circumflexgravecmb.short">
          24 callsubr
          320 3 33 callgsubr
          endchar
        </CharString>
        <CharString name="circumflexhookabovecmb">
          362 1708 -48 callgsubr
        </CharString>
        <CharString name="circumflexhookabovecmb.short">
          24 callsubr
          70 139 rmoveto
          11 24 39 9 34 hhcurveto
          61 36 -30 -49 -42 -28 -34 -48 -20 hvcurveto
          33 -41 rlineto
          68 30 39 52 66 vvcurveto
          71 -60 49 -88 -39 -40 -10 -10 -19 vhcurveto
          endchar
        </CharString>
        <CharString name="circumflextildecmb">
          302 1531 -55 callgsubr
        </CharString>
        <CharString name="circumflextildecmb.short">
          463 1827 -39 callsubr
        </CharString>
        <CharString name="colon">
          -612 216 -8 23 callsubr
          165 777 39 callgsubr
          endchar
        </CharString>
        <CharString name="colon.uc">
          -612 274 268 23 callsubr
          165 777 39 callgsubr
          endchar
        </CharString>
        <CharString name="coloncurrency">
          68 976 1391 rmoveto
          7 7 0 7 hhcurveto
          89 76 -9 -15 65 hvcurveto
          -690 -1224 -71 39 -61 52 -46 62 rlinecurve
          -40 62 rmoveto
          -49 87 -26 105 119 vvcurveto
          379 269 295 386 43 vhcurveto
          532 213 rmoveto
          -73 hlineto
          -92 -164 -69 17 -93 13 -86 1 rlinecurve
          75 133 rlineto
          -74 hlineto
          -76 -135 rlineto
          -465 -26 -318 -337 -444 vvcurveto
          -149 40 -130 71 -105 vhcurveto
          -255 -453 rlineto
          74 hlineto
          224 398 51 -58 62 -49 71 -37 rlinecurve
          -143 -254 rlineto
          73 hlineto
          128 227 rlineto
          -42 100 117 -22 128 hhcurveto
          43 51 4 7 30 hvcurveto
          15 72 rlineto
          -6 -38 -46 -4 -44 hhcurveto
          -119 -107 21 38 -92 hvcurveto
          endchar
        </CharString>
        <CharString name="comma">
          -628 97 -260 rmoveto
          204 47 callgsubr
        </CharString>
        <CharString name="commaaccent">
          -207 258 -446 -38 callsubr
        </CharString>
        <CharString name="commabelowcmb">
          -227 -475 -38 callsubr
        </CharString>
        <CharString name="copyright">
          594 915 -145 rmoveto
          439 355 359 446 436 -304 301 -441 -439 -356 -360 -445 -435 306 -302 440 hvcurveto
          67 vmoveto
          -402 -276 273 397 408 326 330 401 403 274 -271 -400 -407 -326 -330 -400 hvcurveto
          403 856 rmoveto
          169 -10 -134 116 -186 hhcurveto
          -245 -190 -214 -277 -224 139 -147 212 160 129 84 137 51 hvcurveto
          -69 hlineto
          -101 -45 -100 -60 -122 hhcurveto
          -174 -113 124 192 241 157 185 205 150 110 -92 -133 10 hvcurveto
          endchar
        </CharString>
        <CharString name="cruzeiro">
          68 1034 -6 rmoveto
          15 72 rlineto
          -6 -38 -47 -4 -43 hhcurveto
          -71 -67 8 16 -64 hvcurveto
          77 364 rlineto
          212 45 135 137 164 hhcurveto
          33 50 -7 -8 18 hvcurveto
          18 77 rlineto
          7 -23 -39 4 -31 hhcurveto
          -137 -124 -84 -131 -64 80 callsubr
          -73 hlineto
          -159 -750 rlineto
          -249 84 -144 205 280 vvcurveto
          412 322 308 432 110 97 -14 -28 86 vhcurveto
          17 72 rlineto
          27 -71 -125 18 -108 hhcurveto
          -490 -355 -339 -468 -405 298 -269 443 44 50 4 7 30 hvcurveto
          endchar
        </CharString>
        <CharString name="currency">
          68 372 655 rmoveto
          174 142 142 173 173 142 -142 -174 -172 -142 -143 -173 -156 -159 141 174 vhcurveto
          858 408 rmoveto
          -41 53 -234 -192 rlineto
          69 -69 -95 42 -104 hhcurveto
          -76 -72 -23 -39 -59 hvcurveto
          -109 140 -58 -46 110 -139 rlineto
          -71 -69 -44 -97 -107 vvcurveto
          -78 24 -72 40 -61 vhcurveto
          -236 -196 42 -53 238 196 rlineto
          -71 69 96 -44 106 hhcurveto
          74 70 22 38 58 hvcurveto
          108 -137 57 46 -107 135 rlineto
          73 69 46 98 108 vvcurveto
          80 -25 75 -43 61 vhcurveto
          endchar
        </CharString>
        <CharString name="cyrilliccentraldescender">
          -457 321 114 callgsubr
          endchar
        </CharString>
        <CharString name="cyrilliccentraldescendercap">
          -457 321 18 rmoveto
          -73 hlineto
          -65 -11 callgsubr
          73 hlineto
          endchar
        </CharString>
        <CharString name="cyrillicdescender">
          -366 317 -10 callsubr
          endchar
        </CharString>
        <CharString name="cyrillicdescender.short">
          -366 276 102 callsubr
          -15 -68 rlineto
          97 hlineto
          endchar
        </CharString>
        <CharString name="cyrillicdescendercap">
          -366 324 75 callsubr
          77 358 rlineto
          -266 hlineto
          -17 -73 rlineto
          192 hlineto
          endchar
        </CharString>
        <CharString name="cyrillicdescendercap.short">
          -366 291 82 callgsubr
          endchar
        </CharString>
        <CharString name="cyrillichook">
          -365 95 -363 29 callgsubr
          endchar
        </CharString>
        <CharString name="cyrillichookcap">
          -366 106 -364 65 callgsubr
          endchar
        </CharString>
        <CharString name="cyrillictail">
          -366 219 -285 rmoveto
          79 hlineto
          168 72 callgsubr
          endchar
        </CharString>
        <CharString name="cyrillictailcap">
          -365 215 59 callgsubr
          168 hlineto
          endchar
        </CharString>
        <CharString name="d">
          -20 493 -16 -1 callgsubr
        </CharString>
        <CharString name="dagger">
          -170 713 1179 rmoveto
          314 hlineto
          14 68 rlineto
          -314 hlineto
          64 301 rlineto
          -72 hlineto
          -64 -301 rlineto
          -318 65 callsubr
          318 hlineto
          -145 -680 rlineto
          72 hlineto
          endchar
        </CharString>
        <CharString name="daggerdbl">
          -170 945 793 rmoveto
          14 67 rlineto
          -315 hlineto
          35 166 36 164 rlineto
          314 hlineto
          15 68 rlineto
          -314 hlineto
          61 290 rlineto
          -72 hlineto
          -61 -290 rlineto
          -319 65 callsubr
          319 hlineto
          -35 -164 -35 -166 rlineto
          -319 hlineto
          -15 -67 rlineto
          319 hlineto
          -63 -294 rlineto
          72 hlineto
          63 294 rlineto
          endchar
        </CharString>
        <CharString name="dblgrave">
          -249 698 1241 -41 callgsubr
        </CharString>
        <CharString name="dblgravecmb">
          134 1241 -41 callgsubr
        </CharString>
        <CharString name="dblgravecmb.short">
          115 1556 -31 callgsubr
        </CharString>
        <CharString name="dcaron">
          115 1416 74 callsubr
          103 385 rlineto
          -1000 -1459 -1 callgsubr
        </CharString>
        <CharString name="dcircumflexbelow">
          -20 493 -16 -95 callgsubr
          -3 -219 -89 callgsubr
        </CharString>
        <CharString name="dcommaaccent">
          -20 493 -16 -95 callgsubr
          -168 -529 -38 callsubr
        </CharString>
        <CharString name="dcroat">
          -20 509 54 rmoveto
          -194 -125 143 217 310 213 262 246 197 128 -142 -217 -307 -195 -266 -270 hvcurveto
          818 1244 rmoveto
          -114 hlineto
          31 145 rlineto
          -78 hlineto
          -31 -145 rlineto
          -285 hlineto
          -15 -66 rlineto
          286 hlineto
          -105 -489 rlineto
          -4 hlineto
          184 -21 -148 129 -193 hhcurveto
          -293 -244 -292 -356 -251 153 -173 227 166 162 98 152 83 hvcurveto
          4 hlineto
          -50 -234 rlineto
          79 hlineto
          262 1232 rlineto
          114 hlineto
          endchar
        </CharString>
        <CharString name="ddotaccent">
          -20 493 -16 -95 callgsubr
          753 1590 -100 callgsubr
        </CharString>
        <CharString name="ddotbelow">
          -20 493 -16 -95 callgsubr
          -46 -363 -100 callgsubr
        </CharString>
        <CharString name="decyrillic">
          2 callgsubr
        </CharString>
        <CharString name="decyrillic.1">
          -37 546 54 rmoveto
          -212 -138 145 230 296 178 234 272 211 138 -133 -210 -315 -191 -247 -258 hvcurveto
          105 974 rmoveto
          -324 -209 -262 -340 -267 168 -176 256 300 209 263 383 28 hvcurveto
          466 42 -117 374 -410 -130 -81 -41 -1 hhcurveto
          -14 -72 rlineto
          7 14 93 38 109 hhcurveto
          293 142 -214 -395 4 hvcurveto
          -6 hlineto
          147 -47 -143 89 -176 hhcurveto
          endchar
        </CharString>
        <CharString name="degree">
          -400 562 928 rmoveto
          148 120 119 148 147 -120 120 -148 -147 -120 -120 -147 -148 120 -119 147 hvcurveto
          63 vmoveto
          -111 -93 92 112 112 93 91 111 114 91 -91 -112 -112 -91 -92 -114 hvcurveto
          endchar
        </CharString>
        <CharString name="deltagreek">
          -22 559 -17 rmoveto
          312 212 241 302 190 -98 150 -226 111 hvcurveto
          -185 90 -51 50 80 vvcurveto
          118 116 72 177 119 106 -25 -45 65 vhcurveto
          16 70 rlineto
          41 -52 -123 29 -121 hhcurveto
          -231 -150 -104 -156 -97 66 -79 141 -64 hvcurveto
          -1 -3 rlineto
          -23 hlineto
          -296 -11 -207 -214 -306 vvcurveto
          -292 206 -148 228 vhcurveto
          9 70 rmoveto
          -177 -188 110 264 283 194 189 254 199 154 -165 -211 -271 -191 -199 -245 hvcurveto
          endchar
        </CharString>
        <CharString name="dieresis">
          -249 513 1243 -105 callsubr
        </CharString>
        <CharString name="dieresisacutecmb">
          224 1513 rmoveto
          80 hlineto
          310 301 rlineto
          -90 hlineto
          -447 -574 -105 callsubr
        </CharString>
        <CharString name="dieresisacutecmb.short">
          258 1771 -29 callgsubr
        </CharString>
        <CharString name="dieresisbelowcmb">
          -260 -340 13 callgsubr
        </CharString>
        <CharString name="dieresiscaroncmb">
          75 1240 -50 callsubr
          -153 266 73 callgsubr
          endchar
        </CharString>
        <CharString name="dieresiscaroncmb.short">
          291 1767 19 callgsubr
        </CharString>
        <CharString name="dieresiscmb">
          75 1243 -105 callsubr
        </CharString>
        <CharString name="dieresiscmb.short">
          153 1605 -105 callsubr
        </CharString>
        <CharString name="dieresisgravecmb">
          303 1513 rmoveto
          -178 20 callgsubr
          -160 -273 -105 callsubr
        </CharString>
        <CharString name="dieresisgravecmb.short">
          361 1771 27 callsubr
        </CharString>
        <CharString name="dieresismacroncmb">
          75 1240 -38 callgsubr
        </CharString>
        <CharString name="dieresismacroncmb.short">
          144 1683 -40 callsubr
        </CharString>
        <CharString name="dieresistonosgreek">
          -124 706 1241 -42 callsubr
        </CharString>
        <CharString name="divide">
          68 1149 541 28 callgsubr
        </CharString>
        <CharString name="divide.uc">
          68 1182 695 28 callgsubr
        </CharString>
        <CharString name="djecyrillic">
          -62 322 836 rmoveto
          85 398 rlineto
          269 hlineto
          13 61 rlineto
          -269 hlineto
          34 159 rlineto
          -78 hlineto
          -34 -159 rlineto
          -125 hlineto
          -13 -61 rlineto
          125 hlineto
          -263 -1234 rlineto
          77 hlineto
          138 643 rlineto
          189 41 158 154 199 hhcurveto
          175 113 -105 -161 -26 -4 -35 -8 -37 hvcurveto
          -151 -700 -28 -132 -72 -55 -127 7 rlinecurve
          -34 1 -16 -72 rlineto
          9 33 -1 8 hhcurveto
          166 -9 97 68 41 187 155 721 rcurveline
          9 37 2 36 29 vvcurveto
          185 -141 132 -203 -166 -133 -89 -131 -78 vhcurveto
          endchar
        </CharString>
        <CharString name="dlinebelow">
          -20 493 -16 -95 callgsubr
          255 -285 -74 callsubr
        </CharString>
        <CharString name="dollar">
          68 697 790 rmoveto
          -203 82 -84 82 131 vvcurveto
          179 158 131 222 12 11 0 -1 12 vhcurveto
          -42 -722 rmoveto
          180 -73 80 -84 -138 vvcurveto
          -197 -161 -134 -246 -11 -11 0 1 -11 vhcurveto
          136 643 rlineto
          536 413 rmoveto
          -12 180 -150 141 -210 36 29 137 rcurveline
          -64 hlineto
          -28 -130 rlineto
          1 -13 -13 0 -14 hhcurveto
          -279 -193 -163 -223 -160 100 -107 234 -94 hvcurveto
          18 -7 -140 -661 -199 30 -140 126 -8 167 rlinecurve
          -81 hlineto
          6 -203 171 -156 236 -36 -32 -150 rcurveline
          64 hlineto
          30 143 rlineto
          -1 15 14 0 15 hhcurveto
          292 203 164 244 166 -99 109 -203 82 hvcurveto
          -68 28 131 621 169 -31 123 -109 16 -144 rlinecurve
          endchar
        </CharString>
        <CharString name="dotaccent">
          -207 686 1241 -71 callgsubr
        </CharString>
        <CharString name="dotaccentcmb">
          224 1241 -71 callgsubr
        </CharString>
        <CharString name="dotaccentcmb.short">
          310 1644 -100 callgsubr
        </CharString>
        <CharString name="dotbelowcmb">
          -105 -309 -100 callgsubr
        </CharString>
        <CharString name="dotlessi">
          -807 67 -28 callgsubr
          endchar
        </CharString>
        <CharString name="dotlessj">
          -805 367 1040 12 callgsubr
          endchar
        </CharString>
        <CharString name="dotmacroncmb">
          227 1237 0 callsubr
        </CharString>
        <CharString name="dotmacroncmb.short">
          295 1560 22 callsubr
        </CharString>
        <CharString name="doublebreve">
          -599 325 5 callgsubr
          endchar
        </CharString>
        <CharString name="doublebreve.short">
          -599 413 4 callsubr
          endchar
        </CharString>
        <CharString name="dzecyrillic">
          -192 227 -99 callgsubr
          endchar
        </CharString>
        <CharString name="dzhecyrillic">
          -93 860 hmoveto
          221 1040 47 callsubr
          360 hlineto
          -59 -275 rlineto
          74 hlineto
          59 275 rlineto
          endchar
        </CharString>
        <CharString name="e">
          -104 callgsubr
          endchar
        </CharString>
        <CharString name="eacute">
          -104 callgsubr
          238 1258 -75 callsubr
        </CharString>
        <CharString name="ebreve">
          -104 callgsubr
          -43 1508 -66 callsubr
        </CharString>
        <CharString name="ecaron">
          -104 callgsubr
          239 1258 -70 callsubr
        </CharString>
        <CharString name="ecedilla">
          -97 212 575 rmoveto
          240 43 172 172 217 hhcurveto
          200 114 -138 -198 -35 -1 -18 -5 -23 hvcurveto
          69 -66 rmoveto
          9 38 6 53 46 vvcurveto
          253 -150 158 -240 -306 -225 -279 -366 -233 126 -164 214 -28 vhcurveto
          -86 -134 -10 -42 52 -3 rlineto
          94 -7 51 -34 -64 vvcurveto
          -70 -60 -39 -88 -62 -49 14 22 -42 vhcurveto
          -13 -60 rlineto
          -22 44 58 -15 66 hhcurveto
          125 88 67 109 91 -68 53 -116 6 hvcurveto
          79 124 rlineto
          2 1 0 2 hhcurveto
          219 170 123 191 62 hvcurveto
          -79 hlineto
          -153 -57 -133 -91 -178 hhcurveto
          -205 -129 140 225 22 3 31 5 38 hvcurveto
          endchar
        </CharString>
        <CharString name="ecedillabreve">
          -97 955 1491 rmoveto
          -118 -13 -90 -77 -120 hhcurveto
          -119 -73 61 99 13 2 11 2 11 hvcurveto
          -64 hlineto
          -3 -13 -2 -15 -15 vvcurveto
          -126 101 -84 147 163 116 101 152 17 vhcurveto
          -807 -916 rmoveto
          240 43 172 172 217 hhcurveto
          200 114 -138 -198 -35 -1 -18 -5 -23 hvcurveto
          69 -66 rmoveto
          9 38 6 53 46 vvcurveto
          253 -150 158 -240 -306 -225 -279 -366 -233 126 -164 214 -28 vhcurveto
          -86 -134 -10 -42 52 -3 rlineto
          94 -7 51 -34 -64 vvcurveto
          -70 -60 -39 -88 -62 -49 14 22 -42 vhcurveto
          -13 -60 rlineto
          -22 44 58 -15 66 hhcurveto
          125 88 67 109 91 -68 53 -116 6 hvcurveto
          79 124 rlineto
          2 1 0 2 hhcurveto
          219 170 123 191 62 hvcurveto
          -79 hlineto
          -153 -57 -133 -91 -178 hhcurveto
          -205 -129 140 225 22 3 31 5 38 hvcurveto
          endchar
        </CharString>
        <CharString name="ecircumflex">
          -104 callgsubr
          296 1561 -55 callsubr
        </CharString>
        <CharString name="ecircumflexacute">
          -104 callgsubr
          284 1522 14 callsubr
        </CharString>
        <CharString name="ecircumflexbelow">
          -104 callgsubr
          -38 -148 -89 callgsubr
        </CharString>
        <CharString name="ecircumflexdotbelow">
          -104 callgsubr
          296 1561 -73 callgsubr
          -569 -1550 -100 callgsubr
        </CharString>
        <CharString name="ecircumflexgrave">
          -104 callgsubr
          587 1504 rmoveto
          -178 20 callgsubr
          -235 18 -77 callsubr
          endchar
        </CharString>
        <CharString name="ecircumflexhookabove">
          -104 callgsubr
          344 1699 -48 callgsubr
        </CharString>
        <CharString name="ecircumflextilde">
          -104 callgsubr
          284 1522 -55 callgsubr
        </CharString>
        <CharString name="ecyrillic">
          0 callgsubr
          endchar
        </CharString>
        <CharString name="edblgrave">
          -104 callgsubr
          122 1258 -41 callgsubr
        </CharString>
        <CharString name="edieresis">
          -104 callgsubr
          63 1260 -105 callsubr
        </CharString>
        <CharString name="edotaccent">
          -104 callgsubr
          212 1258 -71 callgsubr
        </CharString>
        <CharString name="edotbelow">
          -104 callgsubr
          -81 -292 -100 callgsubr
        </CharString>
        <CharString name="efcyrillic">
          238 587 -372 rmoveto
          76 353 rlineto
          416 8 273 272 347 vvcurveto
          264 -177 173 -284 10 vhcurveto
          76 360 rlineto
          -77 hlineto
          -76 -359 rlineto
          -417 -9 -272 -271 -348 vvcurveto
          -264 177 -172 284 -10 vhcurveto
          -76 -354 rlineto
          762 971 rmoveto
          -295 -237 -243 -357 -11 vhcurveto
          198 935 rlineto
          245 -8 151 -141 -237 vvcurveto
          -1067 -162 rmoveto
          295 236 243 358 11 vhcurveto
          -198 -935 rlineto
          -245 8 -151 141 237 vvcurveto
          endchar
        </CharString>
        <CharString name="egrave">
          -104 callgsubr
          239 1258 -14 callsubr
        </CharString>
        <CharString name="ehookabove">
          -104 callgsubr
          89 1434 -63 callsubr
        </CharString>
        <CharString name="eight">
          76 1139 -30 callgsubr
        </CharString>
        <CharString name="eight.dnum">
          -538 527 197 -59 callsubr
        </CharString>
        <CharString name="eight.numr">
          -538 692 972 -59 callsubr
        </CharString>
        <CharString name="eight.subs">
          -538 455 -143 -59 callsubr
        </CharString>
        <CharString name="eight.sups">
          -538 770 1339 -59 callsubr
        </CharString>
        <CharString name="eight.tnum">
          68 1135 -30 callgsubr
        </CharString>
        <CharString name="einvertedbreve">
          -104 callgsubr
          469 1229 -60 callsubr
        </CharString>
        <CharString name="elcyrillic">
          -73 359 436 -56 callgsubr
        </CharString>
        <CharString name="ellipsis">
          306 216 -8 23 callsubr
          459 hmoveto
          -6 callgsubr
          459 hmoveto
          -6 callgsubr
          endchar
        </CharString>
        <CharString name="emacron">
          -104 callgsubr
          483 1375 -73 callsubr
        </CharString>
        <CharString name="emacronacute">
          -104 callgsubr
          201 1499 42 callsubr
        </CharString>
        <CharString name="emacrongrave">
          -104 callgsubr
          289 1499 30 callsubr
        </CharString>
        <CharString name="emcyrillic">
          201 144 27 callgsubr
        </CharString>
        <CharString name="emdash">
          924 59 527 95 callsubr
        </CharString>
        <CharString name="emdash.uc">
          924 93 687 95 callsubr
        </CharString>
        <CharString name="emquad">
          900 endchar
        </CharString>
        <CharString name="emspace">
          733 endchar
        </CharString>
        <CharString name="encyrillic">
          -83 66 hmoveto
          -34 callsubr
        </CharString>
        <CharString name="endash">
          -100 59 527 rmoveto
          1024 -12 callsubr
          -1024 hlineto
          endchar
        </CharString>
        <CharString name="endash.uc">
          -100 93 687 rmoveto
          1024 -12 callsubr
          -1024 hlineto
          endchar
        </CharString>
        <CharString name="enquad">
          -124 endchar
        </CharString>
        <CharString name="enspace">
          65 endchar
        </CharString>
        <CharString name="eogonek">
          -97 522 -390 rmoveto
          32 35 6 8 16 hvcurveto
          13 60 rlineto
          -8 -14 -24 -4 -33 hhcurveto
          -66 -46 39 56 85 83 73 218 105 hvcurveto
          79 35 110 85 47 147 rrcurveto
          -79 hlineto
          -153 -57 -133 -91 -178 hhcurveto
          -204 -129 140 225 22 3 31 5 38 hvcurveto
          820 hlineto
          9 38 6 53 46 vvcurveto
          253 -151 158 -239 -306 -226 -279 -366 -257 153 -172 256 16 22 1 1 9 vhcurveto
          -1 vlineto
          -144 -72 -63 -73 -89 vvcurveto
          -82 66 -58 94 vhcurveto
          -311 965 rmoveto
          240 43 171 172 217 hhcurveto
          200 115 -138 -198 -35 -1 -18 -6 -23 hvcurveto
          endchar
        </CharString>
        <CharString name="epsilongreek">
          -11 callsubr
          endchar
        </CharString>
        <CharString name="epsilontonosgreek">
          -11 callsubr
          253 1202 26 callsubr
        </CharString>
        <CharString name="equal">
          68 1101 353 74 callgsubr
          1046 375 74 callgsubr
          endchar
        </CharString>
        <CharString name="equal.dnum">
          -531 519 208 17 callsubr
        </CharString>
        <CharString name="equal.numr">
          -530 684 983 17 callsubr
        </CharString>
        <CharString name="equal.subs">
          -530 447 -132 17 callsubr
        </CharString>
        <CharString name="equal.sups">
          -530 762 1350 17 callsubr
        </CharString>
        <CharString name="equal.uc">
          68 1132 499 74 callgsubr
          1046 375 74 callgsubr
          endchar
        </CharString>
        <CharString name="ercyrillic">
          -17 577 -72 callsubr
          endchar
        </CharString>
        <CharString name="ereversedcyrillic">
          -83 callsubr
          endchar
        </CharString>
        <CharString name="escyrillic">
          -107 653 1057 -94 callsubr
          endchar
        </CharString>
        <CharString name="etagreek">
          -8 callsubr
          endchar
        </CharString>
        <CharString name="etatonosgreek">
          -8 callsubr
          -143 566 26 callsubr
        </CharString>
        <CharString name="eth">
          -71 507 -17 rmoveto
          264 201 195 320 67 hvcurveto
          23 113 9 94 88 vvcurveto
          171 -41 146 -90 142 vhcurveto
          250 96 -6 60 -275 -104 -43 52 -46 44 -44 33 rlinecurve
          -96 hlineto
          57 -43 55 -50 49 -59 -289 -106 rcurveline
          7 -59 316 115 82 -124 42 -138 1 -151 rlinecurve
          -13 0 -22 -1 -4 vhcurveto
          -4 hlineto
          140 -43 -135 100 -175 hhcurveto
          -304 -227 -262 -365 -233 159 -176 237 hvcurveto
          464 640 rmoveto
          -314 -206 -255 -249 -200 -124 141 211 312 194 229 254 196 135 -128 -196 vhcurveto
          endchar
        </CharString>
        <CharString name="etilde">
          -104 callgsubr
          350 1260 -102 callgsubr
          endchar
        </CharString>
        <CharString name="etildebelow">
          -104 callgsubr
          40 -370 -102 callgsubr
          endchar
        </CharString>
        <CharString name="exclam">
          -613 465 84 callsubr
          -211 -1016 rlineto
          79 hlineto
          220 1016 rlineto
          -333 -1451 23 callsubr
          endchar
        </CharString>
        <CharString name="exclamdown">
          -613 174 -340 rmoveto
          211 1016 -32 callsubr
          -220 -1016 rlineto
          337 1452 rmoveto
          -37 -29 -30 -36 -37 29 -30 37 97 callsubr
          36 -30 30 -37 hvcurveto
          endchar
        </CharString>
        <CharString name="f">
          -582 -51 callgsubr
          endchar
        </CharString>
        <CharString name="f.1">
          -461 127 -276 rmoveto
          78 hlineto
          265 1248 rlineto
          247 hlineto
          14 68 rlineto
          -246 hlineto
          27 135 rlineto
          128 27 75 64 108 hhcurveto
          37 33 -5 -8 26 hvcurveto
          13 68 rlineto
          8 -30 -36 5 -37 hhcurveto
          -158 -100 -82 -170 -35 hvcurveto
          -29 -143 rlineto
          -165 hlineto
          -15 -68 rlineto
          166 hlineto
          endchar
        </CharString>
        <CharString name="fdotaccent">
          -582 -51 callgsubr
          254 651 -100 callgsubr
        </CharString>
        <CharString name="fi">
          -267 -51 callgsubr
          276 -972 rmoveto
          -10 callgsubr
          endchar
        </CharString>
        <CharString name="figuredash">
          69 59 527 96 callgsubr
        </CharString>
        <CharString name="figuredash.uc">
          69 93 687 96 callgsubr
        </CharString>
        <CharString name="figurespace">
          163 endchar
        </CharString>
        <CharString name="five">
          54 613 -3 callsubr
        </CharString>
        <CharString name="five.dnum">
          -554 264 -12 -49 callgsubr
        </CharString>
        <CharString name="five.numr">
          -554 429 763 -49 callgsubr
        </CharString>
        <CharString name="five.subs">
          -554 192 -352 -49 callgsubr
        </CharString>
        <CharString name="five.sups">
          -554 507 1130 -49 callgsubr
        </CharString>
        <CharString name="five.tnum">
          68 618 -3 callsubr
        </CharString>
        <CharString name="fl">
          -261 -51 callgsubr
          278 -972 76 callsubr
        </CharString>
        <CharString name="fl.1">
          -156 -51 callgsubr
          492 -976 -5 callsubr
        </CharString>
        <CharString name="florin">
          68 183 -14 rmoveto
          180 121 97 189 74 hvcurveto
          193 485 rlineto
          436 hlineto
          14 68 rlineto
          -425 hlineto
          131 328 rlineto
          151 60 108 88 141 hhcurveto
          62 65 -13 -18 51 hvcurveto
          16 70 rlineto
          19 -53 -69 14 -70 hhcurveto
          -176 -131 -98 -193 -76 hvcurveto
          -139 -348 rlineto
          -413 65 callsubr
          402 hlineto
          -185 -465 rlineto
          -160 -64 -95 -73 -144 hhcurveto
          -66 -64 14 22 -49 hvcurveto
          -19 -72 rlineto
          -23 57 66 -14 75 hhcurveto
          endchar
        </CharString>
        <CharString name="four">
          72 777 15 callsubr
        </CharString>
        <CharString name="four.1">
          86 753 37 callgsubr
        </CharString>
        <CharString name="four.1.tnum">
          68 745 37 callgsubr
        </CharString>
        <CharString name="four.dnum">
          -541 327 hmoveto
          -54 callgsubr
        </CharString>
        <CharString name="four.numr">
          -541 492 775 rmoveto
          -54 callgsubr
        </CharString>
        <CharString name="four.subs">
          -541 255 -340 rmoveto
          -54 callgsubr
        </CharString>
        <CharString name="four.sups">
          -541 570 1142 rmoveto
          -54 callgsubr
        </CharString>
        <CharString name="four.tnum">
          68 787 15 callsubr
        </CharString>
        <CharString name="fraction">
          -914 -441 hmoveto
          2 callsubr
          endchar
        </CharString>
</ttFont>
